<?xml version="1.0" encoding="utf-8"?><svg viewBox="0 0 53 24" xmlns="http://www.w3.org/2000/svg" xmlns:xlink="http://www.w3.org/1999/xlink"><style>:root>svg{display:none}:root>svg:target{display:block}</style><svg fill="none" viewBox="0 0 24 24" id="email-icon" xmlns="http://www.w3.org/2000/svg"><g stroke="#BF3025" stroke-width="2" stroke-linecap="round" stroke-linejoin="round"><path d="M4 4h16c1.1 0 2 .9 2 2v12c0 1.1-.9 2-2 2H4c-1.1 0-2-.9-2-2V6c0-1.1.9-2 2-2z"/><path d="M22 6l-10 7L2 6"/></g></svg><svg fill="none" viewBox="0 0 53 22" id="isart-icon" xmlns="http://www.w3.org/2000/svg"><g clip-path="url(#ba)" fill-rule="evenodd" clip-rule="evenodd" fill="#323648"><path d="M.798 18.19c.01-.086.03-.173.048-.25l.058-.318c.01-.048.01-.105.03-.163.009-.048.018-.087.028-.125.01-.087.029-.173.038-.27.01-.086.039-.173.049-.24 0-.058.086-.549.105-.587 0-.077.116-.8.135-.838.01-.134.058-.288.068-.423.01-.154.067-.356.086-.51.01-.135.048-.308.068-.443a2.28 2.28 0 01.038-.221c.01-.058.029-.116.029-.193.029-.096.038-.279.067-.356.01-.144.048-.289.068-.433.01-.058.019-.096.029-.164.01-.048 0-.086.028-.106 0-.125.049-.25.049-.356.028-.163.067-.337.086-.5l.058-.337c.01-.038.02-.125.029-.164.01-.057.019-.076.019-.134.01-.087.029-.173.048-.26.01-.067.039-.173.039-.231.019-.096.038-.202.048-.289.01-.192.086-.385.086-.587a1.19 1.19 0 00.049-.26c.019-.096.038-.202.048-.289l.086-.529c.01-.038.01-.048.01-.087 0-.019 0-.019.01-.038l.01-.02c0-.144.047-.317.067-.452 0-.057.048-.336.067-.365 0-.125.039-.174.039-.29.01-.047.048-.22.048-.278 0-.068.019-.096.029-.164l.077-.404c0-.125.019-.183.038-.298.01-.039.039-.222.048-.27.01-.087.029-.144.039-.24.01-.068.086-.607.115-.636 0-.086.01-.106.029-.183.01-.067.048-.404.077-.433 0-.106.02-.183.039-.288.019-.097.019-.164.048-.241l.106-.606c0-.077.086-.597.105-.626 0-.087.077-.549.106-.606 0-.068.048-.366.068-.405 0-.086.029-.24.048-.327 0-.058.125-.77.135-.808 0-.135.048-.299.067-.433 0-.077.01-.058.02-.116h20.932l-.096.635c-.02.097.01.039-.038.077l.01.048c-.03.145-.107.78-.155.847.01.087-.077.664-.115.722.01.096-.077.578-.106.693l-.058.327-.183 1.001c.01.068-.077.597-.106.645.01.145-.048.366-.077.52l-.086.51c-.01.02-.01.02-.01.038l-.01.03c.01.076-.01.26-.057.317.01.106-.039.308-.058.414-.02.115-.096.673-.135.722.01.086-.058.548-.106.606.01.048-.038.443-.086.5.019.126-.096.597-.116.77-.029.106-.038.222-.058.328l-.067.336c.01.049-.048.54-.106.616.02.077-.01.26-.057.318.01.087-.02.183-.03.28l-.105.528c.01.068-.02.29-.058.337.01.097-.038.433-.086.5.01.097-.02.203-.039.3-.01.066-.029.24-.067.288.01.058 0 .106-.01.163 0 .03-.01.058-.02.087-.009.058 0 .029-.028.067.01.068 0 .106-.01.164 0 .02-.01.058-.01.077-.009.058 0 .029-.028.068l-.058.452c-.039.115.038-.096-.01.029 0 0-.01.019-.01.01 0 0 0 .009-.009.009.01.058 0 .106-.01.164l-.038.144c.02.077-.048.481-.087.539.01.096-.057.548-.105.606.01.096-.039.453-.087.51.01.077-.01.25-.048.308.01.087-.02.193-.039.29l-.067.423c-.01.067-.048.337-.077.394.019.096-.02.222-.039.327-.019.097-.019.231-.067.299.01.087-.02.183-.029.27-.01.076-.02.192-.058.24.02.115-.048.356-.067.481-.02.125-.02.356-.087.443.01.096-.038.452-.086.51.01.087-.068.568-.106.616.01.115-.058.433-.077.568-.02.144.01.163-.135.173H2.935v-.01c-.578 0-1.155 0-1.723.01H.182c.01-.077.03-.164.049-.25l.077-.5c.01-.04.028-.213.048-.232 0-.058.067-.5.086-.53 0-.067.02-.163.03-.22.21-1.232.047-.164.298-1.79l.028.028zm4.39 1.675H8.44c1.01-4.976 2.358-12.906 3.253-18.113H8.47c.039 1.145-3.128 17.256-3.272 18.123l-.01-.01zm8.141-5.265c-.029.068-.038.193-.048.28-.01.086-.048.192-.048.288 0 .058-.029.135-.038.193-.01.067-.03.154-.039.23-.02.03-.067.328-.067.395-.03.039-.106.53-.106.616l-.106.54c-.02.144-.067.26-.048.442.029.289.279.472.587.424.23-.039.212-.058.366-.145.057-.096.288-.289.27-.443.038-.057.105-.5.115-.567.028-.126.106-.51.096-.607l.01-.029c0-.01.077-.23.057-.365l.03-.097c.009-.029.009-.067.018-.106.01-.067.039-.144.02-.211.01-.02.01 0 .019-.039l.019-.086c.01-.068.01-.068.01-.126.048-.057.067-.317.086-.413.02-.125.087-.395.077-.5l.068-.29c.019-.105.048-.211.038-.307.029-.039.029-.097.02-.154.086-.135-.049-.655-.097-.8-.048-.134-.298-.538-.375-.577-.02-.048-.231-.337-.28-.366-.019-.057 0-.01-.038-.057l-.27-.337-.067-.106c-.086-.106-.49-.635-.53-.645-.018-.067-.182-.26-.24-.327-.048-.058-.211-.289-.25-.308-.02-.039-.25-.366-.289-.385-.048-.116-.134-.221-.202-.337a1.584 1.584 0 01-.096-.183c-.02-.048-.048-.144-.077-.183-.038-.221-.058-.327-.048-.567l.087-.616.144-.809c.029-.135.106-.481.087-.597.048-.067.086-.375.086-.471.039-.048.116-.54.106-.607.067-.105.096-.558.144-.721.02-.135.097-.434.087-.549.02-.02.01 0 .02-.038l.038-.164c.019-.067.048-.144.038-.212.03-.038.02-.02.039-.077l.029-.077c.019-.058.038-.096.038-.163.048-.049.106-.212.135-.29l.154-.288c.048-.029.096-.106.135-.154.048-.067.086-.096.144-.144.048-.039.318-.222.327-.24.087-.03.183-.097.28-.136.096-.038.182-.077.288-.106.222-.067.414-.096.655-.115.683-.02 1.386 0 2.078 0 .665 0 1.29.058 1.646.443.077.077.24.298.289.433.038.115.087.202.115.327a1.921 1.921 0 01.02.664c-.01.077-.03.173-.03.26-.009.087-.038.192-.047.28-.01.095-.03.23-.058.307 0 .067-.029.173-.038.25-.02.097-.039.193-.049.28a2.47 2.47 0 00-.048.288c-.01.068-.029.145-.048.231-.02.096-.038.183-.038.28-.03.086-.039.201-.058.307-.02.125-.039.222-.058.337 0 .067-.038.231-.048.289-.01.058-.01.077-.02.144-.009.048-.028.106-.028.173-.01.068-.029.154-.048.231a1.31 1.31 0 00-.039.26 3.01 3.01 0 01-.048.212l-2.57.01c0-.183.116-.51.106-.684.048-.057.097-.423.087-.51.02-.029.01 0 .02-.048l.076-.51c.058-.067.106-.616.145-.741.019-.135.077-.337.067-.462.038-.058.038-.202.067-.27l.01-.096.029-.125c.077-.375-.068-.703-.462-.703-.318 0-.645.193-.741.462-.02.049-.02.077-.039.116-.02.096-.048.231-.048.327-.02.087-.029.145-.048.24-.02.097-.039.174-.039.28l-.038.144-.029.174c-.02.125-.048.24-.058.356-.029.019-.019.077-.029.125-.01.067-.019.086-.028.144-.01.087-.049.212-.049.298-.019.078-.028.145-.048.241-.019.096-.038.173-.038.28-.03.038-.068.317-.077.413-.01.067-.03.337-.01.404.02.058-.02.02.029.048-.048.135.125.472.202.607.048.077-.01.029.068.067-.01.048-.01.01 0 .048 0 .02.019.039.028.058l.462.626c.039.028-.028 0 .039.028 0 .058.23.328.279.366l.346.404c0 .01-.019.01.03.077l.432.54.241.298c.067.087.038.067.096.096.01.058.145.221.183.289.077.115.145.279.202.308-.019.057-.01.019.02.086.019.03.019.039.038.087l.125.356c.039.144.01.154.058.193-.048.115-.02.288-.02.413-.01.077-.019.097-.019.193-.019.029-.086.5-.086.578-.03.028 0-.01-.02.038 0 .01-.01.067-.01.067-.009.068-.018.106-.018.164-.02.039-.087.433-.087.49a2.22 2.22 0 00-.048.29c-.01.105-.048.202-.048.327-.02.019-.02.067-.03.106-.009.057-.009.086-.018.134-.02.097-.03.203-.048.29 0 .095-.049.23-.049.346a1.121 1.121 0 00-.048.279c-.019.135-.057.27-.067.414-.02.048-.068.336-.068.413-.028.02-.028.097-.028.135-.01.068-.02.096-.03.164-.018.115-.047.24-.057.356a1.37 1.37 0 00-.048.212 1.91 1.91 0 00-.058.25l-.163.462c-.087.212-.193.337-.232.433-.019.01-.134.173-.163.212l-.087.105-.106.116c-.077.106-.385.327-.529.385-.077.029-.144.048-.221.096-.087.01-.424.125-.732.135l-.856.02c-.164 0-.27.018-.414.018H11.99c-.105 0-.125-.019-.221-.019-.048 0-.183-.029-.24-.038-.04-.01-.068-.01-.116-.02s-.067-.028-.125-.028c-.337-.077-.433-.193-.607-.318-.028-.02-.01-.01-.028-.02-.03-.047 0-.009-.039-.057-.01-.02-.02-.02-.029-.038l-.327-.616c-.01-.087-.039-.164-.048-.25-.01-.097.01-.183-.01-.27.03-.058.068-.5.077-.606.02-.154.096-.472.087-.597a.76.76 0 00.058-.327l.01-.03s.086-.317.067-.442c.038-.048.134-.616.125-.702l.038-.145c.01-.067.03-.106.01-.164l.019-.057c0-.01.01-.048.01-.058.01-.038.01-.077.019-.115.01-.077.038-.164.029-.241.048-.067.096-.385.086-.481.039-.058.116-.597.135-.712.058-.049 1.213-.02 1.28-.02h1.31l-.097.568-.039.222c-.019.105-.057.211-.057.327h-.039zm19.154-6.236l.077 1.213c.01.067.01.115.01.211 0 .097.018.106.018.203 0 .269.048.548.048.827l.03.395c.019.144.019.279.019.423 0 .116.028.28.038.395l.029.597c0 .096.02.115.02.202l.047.828c0 .096.02.105.02.202 0 .24.028.356.028.616l.039.413h-1.713l.317-1.636c.048-.279.116-.539.164-.818.02-.135.048-.26.077-.404.029-.145.058-.27.077-.414l.318-1.636c.057-.27.096-.549.163-.818l.116-.607c.01-.038.01-.048.019-.105l.029-.106.01.019zm9.278 2.868h-1.666c-.067 0-.038-.058-.038-.135l.192-3.05c0-.097.02-.107.02-.193l.057-1.02c.01-.068.01-.125.01-.202 0-.174.048-.607.048-.809 0-.096.02-.115.02-.202l.019-.414c.01-.115.028-.289.028-.414h1.781c.49 0 .346.366.346.751l-.22 3.446c0 .077.009.144 0 .221-.05.433-.05.991-.097 1.415-.029.26.077.597-.5.597v.01zm-11.646 8.97l.115-.568.116-.587c.038-.192.077-.385.115-.587.039-.193.077-.395.126-.577h2.54c0 .163.048.423.048.587.01.288.058.587.068.876.01.192.048.394.048.596 0 .087-.01.26.067.26h6.073c.077 0 .049-.135.068-.327.019-.24.019-.5.048-.741.01-.058 0-.125 0-.183l.067-.934c.02-.173.01-.394.039-.568.029-.182.019-.375.038-.567.01-.058 0-.116.01-.183l.096-1.492c0-.077 0-.125.01-.202.029-.212.048-.549.048-.76h.443c.067 0 .057.086.077.144l.49 2.06.183.76c.193.75.376 1.492.54 2.252l.134.568c.02.067.01.163.077.163h3.821c0-.086-.067-.279-.096-.375l-.395-1.473c-.154-.625-.346-1.241-.5-1.867-.154-.616-.347-1.241-.491-1.857-.03-.125-.077-.25-.106-.375.472 0 .828-.126 1.088-.337a1.83 1.83 0 00.693-1.463l.211-3.369c.02-.106.01-.24.029-.337l.039-.683c0-.077.01-.096.019-.154.01-.067 0-.116.01-.183.028-.163.019-.337.028-.5l.048-.674c.01-.164.01-.356.03-.52l.057-1.02h1.145c0 .318-.048.626-.048.943l-.067.943c-.02.164-.01.318-.02.482l-.067.943c0 .173-.01.337-.029.481l-.23 3.792c-.02.135-.02.337-.03.472 0 .086-.019.115-.019.221l-.308 5.005c-.01.144-.038.317-.038.462l-.058.953c-.02.144-.029.317-.029.48h3.773c.077 0 .048-.105.048-.192 0-.154.039-.308.039-.48l.077-1.194a3.64 3.64 0 00.029-.472c0-.087.019-.125.019-.24 0-.116.019-.145.019-.241 0-.125.01-.347.029-.472.029-.163.01-.327.029-.49.01-.145.029-.309.029-.463l.038-.48c0-.107.01-.145.02-.222l.038-.741c.019-.28.057-.664.067-.943l.048-.963c.01-.144.039-.308.039-.462 0-.164.029-.327.038-.481.01-.337.039-.626.048-.963l.337-5.226c.01-.086.01-.154.01-.25 0-.087.02-.125.02-.24h2.502c-.068-.28-.116-.568-.183-.867l-.26-1.299c-.03-.154-.058-.289-.087-.443-.029-.134-.058-.288-.087-.423-.028-.154-.077-.299-.077-.453h-6.93c-.009.068-.028.116-.047.174-.058.163-.135.346-.173.51h-.039c-.02-.068-.087-.116-.135-.164a1.449 1.449 0 00-.356-.24c-.318-.193-.818-.28-1.242-.28H36.91c0 .26-.039.462-.039.703 0 .077-.01.106-.01.154-.01.067 0 .125-.01.183-.009.096-.018.25-.028.346-.01.058 0 .116 0 .174l-.058.885c-.029.212-.038.79-.057 1.059l-.03.52c0 .182-.038.336-.038.51l-.106 1.578c-.01.289-.057.587-.048.876 0 .289-.038.587-.048.876l-.135 2.079c0 .413-.067.837-.067 1.25h-.02c0-.346-.124-1-.153-1.385l-.03-.231c-.009-.096-.009-.145-.018-.231l-.328-2.762c-.086-.607-.125-1.242-.221-1.839l-.058-.462-.49-4.157c-.02-.174-.04-.116-.405-.116h-3.619l-.654 2.704c-.51 2.031-.982 4.072-1.492 6.112a17.18 17.18 0 00-.164.674l-1.068 4.398-.086.347-.992 4.07c-.01.03-.086.338-.086.338.01.048 0 .028.057.028h3.706v.039z"/></g><defs><clipPath id="ba"><path fill="#fff" transform="translate(.183)" d="M0 0h52.338v21.684H0z"/></clipPath></defs></svg><svg fill="none" viewBox="0 0 16 21" id="location-icon" xmlns="http://www.w3.org/2000/svg"><g fill="#BF3025"><path d="M8 12c-.72 0-1.422-.22-2.02-.632a3.727 3.727 0 01-1.34-1.683 3.859 3.859 0 01-.207-2.167c.14-.727.487-1.396.996-1.92A3.604 3.604 0 017.29 4.572a3.534 3.534 0 012.101.213 3.663 3.663 0 011.632 1.381c.4.617.613 1.342.613 2.084a3.814 3.814 0 01-1.066 2.65A3.585 3.585 0 018 12zm0-6c-.432 0-.853.132-1.212.379a2.237 2.237 0 00-.804 1.01 2.315 2.315 0 00-.124 1.3c.084.436.292.837.597 1.152a2.16 2.16 0 001.117.615 2.12 2.12 0 001.26-.128c.4-.17.74-.458.98-.828a2.3 2.3 0 00-.272-2.84A2.151 2.151 0 008 6z"/><path d="M8 21l-6.135-7.461a26.047 26.047 0 01-.253-.34A8.335 8.335 0 010 8.25c0-2.188.843-4.286 2.343-5.834A7.879 7.879 0 018 0c2.122 0 4.157.87 5.657 2.416A8.383 8.383 0 0116 8.25a8.332 8.332 0 01-1.61 4.948l-.002.002s-.218.296-.25.335L8 21zm-5.227-8.704l.208.281L8 18.681l5.025-6.113c.032-.041.203-.273.203-.274a6.813 6.813 0 001.317-4.044c0-1.79-.69-3.507-1.917-4.773A6.446 6.446 0 008 1.5c-1.736 0-3.4.711-4.628 1.977A6.859 6.859 0 001.455 8.25a6.817 6.817 0 001.318 4.046z"/></g></svg><svg fill="none" viewBox="0 0 16 16" id="modal-close-icon" xmlns="http://www.w3.org/2000/svg"><path d="M15.482.519a1.773 1.773 0 00-2.507 0L8 5.501 3.045.52A1.773 1.773 0 10.538 3.03l4.955 4.982-4.975 4.963a1.78 1.78 0 000 2.511c.356.356.81.514 1.264.514.454 0 .908-.178 1.263-.514L8 10.523l4.955 4.963c.355.356.81.514 1.263.514.454 0 .909-.178 1.264-.514a1.78 1.78 0 000-2.511l-4.975-4.963 4.955-4.962c.71-.712.71-1.82.02-2.53V.518z" fill="#D9D9D9"/></svg><svg fill="none" viewBox="0 0 20 20" id="phone-icon" xmlns="http://www.w3.org/2000/svg"><path d="M19 14.476v2.71a1.803 1.803 0 01-1.23 1.719c-.24.08-.492.11-.744.088a17.933 17.933 0 01-7.81-2.773 17.63 17.63 0 01-5.43-5.42 17.853 17.853 0 01-2.779-7.83A1.803 1.803 0 012.08 1.153c.23-.101.478-.154.73-.154h2.714a1.812 1.812 0 011.81 1.554c.115.867.328 1.718.634 2.538a1.803 1.803 0 01-.407 1.906L6.41 8.145a14.466 14.466 0 005.43 5.42l1.15-1.148a1.811 1.811 0 011.91-.406c.82.305 1.674.518 2.543.632a1.81 1.81 0 011.556 1.833z" stroke="#BF3025" stroke-width="2" stroke-linecap="round" stroke-linejoin="round"/></svg><svg fill="none" viewBox="0 0 24 24" id="reviews-button-icon" xmlns="http://www.w3.org/2000/svg"><path d="M12.445 3v18m-8.001-9h16" stroke="#323648" stroke-width="2" stroke-linecap="round" stroke-linejoin="round"/></svg><svg fill="none" viewBox="0 0 20 20" id="search-icon" xmlns="http://www.w3.org/2000/svg"><path d="M9.167 15.833a6.667 6.667 0 100-13.333 6.667 6.667 0 000 13.333zM17.5 17.5l-3.625-3.625" stroke="#323648" stroke-width="2" stroke-linecap="round" stroke-linejoin="round"/></svg><svg fill="none" viewBox="0 0 17 8" id="select-arrow-icon" xmlns="http://www.w3.org/2000/svg"><path d="M16 1L8.5 7 1 1" stroke="#BBB" stroke-width="1.5" stroke-linecap="round"/></svg></svg>