<svg width="40" height="40" fill="none" xmlns="http://www.w3.org/2000/svg"><path d="M14.716 13.06c.798-.85.798-2.23 0-3.08a1.956 1.956 0 0 0-2.889 0c-.013.014-.021.028-.034.041l-7.32-7.804.788-.84a.17.17 0 0 1 .212-.032L14.88 7.01l3.613 3.851c.216.23.342.545.346.873l.026 1.556-2.005 2.138-2.188-2.332.04-.037h.003Z" fill="#98989C"/><path d="m11.718 9.935-1.56 1.662 3.174 3.383 1.559-1.662-3.173-3.383Z" fill="#898989"/><path d="m13.277 8.276-1.559 1.662 3.173 3.383 1.56-1.662-3.174-3.383Z" fill="#B1B1B2"/><path d="M14.73 13.046c-.798.85-2.093.85-2.89 0-.797-.85-.797-2.23 0-3.08.013-.014.026-.023.04-.037L4.558 2.125l-.788.84a.198.198 0 0 0-.03.227l5.314 10.03 3.613 3.85c.216.232.51.366.818.37l1.46.028 2.006-2.138L14.764 13s-.021.028-.034.041v.005Z" fill="#D8DADC"/><path d="M11.758 10.068 4.52 2.352a.113.113 0 0 0-.169 0l-.165.175a.132.132 0 0 0-.017.157l5.605 9.577c.048.079.104.153.165.222l3.777 4.027c.052.055.108.106.169.152l1.061.813.763.799c.506.54.727 1.602 1.009 2.946.494 2.36 1.174 5.597 3.994 9.185 2.876 3.657 5.414 4.95 7.658 6.09 1.46.744 2.72 1.386 3.872 2.61l1.737-1.852c-1.45-1.547-2.958-2.314-4.552-3.122-2.114-1.076-4.297-2.184-6.831-5.407-2.435-3.099-3.015-5.86-3.479-8.072-.355-1.69-.658-3.15-1.672-4.23l-.623-.665a.207.207 0 0 1 0-.282l.125-.134-2.187-2.332s-.022.028-.035.042c-.797.85-2.092.85-2.889 0-.468-.499-.641-1.191-.576-1.824.048-.443.277-.924.494-1.15l.004-.01Z" fill="#6D6D6E"/><path d="M31 19.438c-3.367-3.007-6.403-3.732-8.616-4.258-1.261-.3-2.257-.536-2.764-1.076l-.75-.813-.762-1.131a1.402 1.402 0 0 0-.143-.18l-3.777-4.027a1.14 1.14 0 0 0-.208-.175L4.996 1.802a.113.113 0 0 0-.147.019l-.26.277a.131.131 0 0 0 0 .18c.81.868 7.23 7.73 7.243 7.72.797-.849 2.092-.863 2.889-.013.797.85.797 2.23 0 3.08-.013.014-.026.023-.04.037l2.188 2.332.13-.139a.175.175 0 0 1 .256 0l.628.67c1.014 1.08 2.382 1.404 3.968 1.782 2.079.494 4.665 1.109 7.571 3.709 3.024 2.696 4.063 5.028 5.073 7.282.762 1.7 1.481 3.306 2.928 4.853l1.737-1.852c-1.152-1.228-1.754-2.572-2.447-4.128-1.07-2.387-2.283-5.098-5.714-8.164v-.01Z" fill="#6D6D6E"/><path d="M39.485 33.61c.576-.615.727-1.77.151-2.384-1.122-1.196-1.715-2.52-2.4-4.059-1.078-2.415-2.304-5.148-5.778-8.252-3.413-3.047-6.631-3.615-8.87-4.151-1.222-.29-2.188-.522-2.643-1.007L17.71 16.14c1.061 1.131 2.464 1.469 4.084 1.852 2.054.49 4.61 1.094 7.468 3.652 2.98 2.665 4.011 4.965 5.008 7.195.736 1.649 1.498 3.348 2.98 4.927.576.614 1.659.453 2.235-.161v.004Z" fill="#739CED"/><path d="M38.15 32.806c-1.121-1.196-1.715-2.522-2.4-4.06-1.078-2.415-2.304-5.148-5.777-8.252-3.414-3.047-6.632-3.615-8.872-4.15-1.221-.292-2.187-.523-2.642-1.008l-.754.804c1.062 1.131 2.465 1.468 4.085 1.852 2.053.49 4.609 1.094 7.468 3.652 2.98 2.665 4.01 4.965 5.007 7.195.736 1.648 1.499 3.348 2.98 4.927.334.356.832.453 1.308.351.351-.074.174-.702-.402-1.316v.005Z" fill="url(#a)"/><path d="M34.005 39.451c-.576.614-1.659.776-2.235.162-1.122-1.196-2.365-1.83-3.807-2.559-2.266-1.15-4.83-2.456-7.741-6.16-2.859-3.639-3.392-7.07-3.894-9.457-.273-1.302-.49-2.332-.944-2.817l2.235-2.383c1.06 1.132 1.377 2.628 1.737 4.355.459 2.189 1.026 4.913 3.426 7.961 2.5 3.177 4.656 4.276 6.749 5.338 1.546.785 3.14 1.598 4.621 3.177.576.614.425 1.769-.151 2.383h.004Z" fill="url(#b)"/><path d="M16.618 13.374a1.322 1.322 0 0 1 0 1.787 1.133 1.133 0 0 1-1.676 0 1.322 1.322 0 0 1 0-1.787 1.133 1.133 0 0 1 1.676 0Z" fill="#898989"/><path d="M16.363 13.646a.92.92 0 0 1 0 1.247.788.788 0 0 1-1.17 0 .92.92 0 0 1 0-1.247.788.788 0 0 1 1.17 0Z" fill="#504F53"/><path d="M17.55 15.605s.09-.48.697-1.127c.55-.587 1.04-.725 1.04-.725l-.425-.453-1.867 1.99s.134-.129.255 0l.295.315h.004Z" fill="#39373A"/><path d="M32.61 38.712c-1.122-1.196-2.365-1.829-3.807-2.558-2.265-1.15-4.83-2.457-7.74-6.16-2.86-3.64-3.392-7.07-3.895-9.457-.273-1.303-.49-2.332-.944-2.817l1.39-1.483c1.062 1.132 1.378 2.628 1.737 4.355.46 2.189 1.027 4.913 3.427 7.961 2.499 3.177 4.656 4.276 6.748 5.338 1.547.785 3.14 1.598 4.622 3.177.334.356.425.887.33 1.395-.07.374-.919 1.265-1.872.25h.004Z" fill="#739CED"/><path d="M32.411 10.008 12.317 31.43c.762 2.58.32 4.691-2.322 6.132-2.66 1.45-4.968 1.09-5.822.877a.782.782 0 0 1-.506-.425l-.217-.457 2.985-1.625c1.667-.91 2.33-3.09 1.477-4.867l-.278-.578C6.915 28.992 5.2 28.4 3.797 29.163l-3.47 1.889-.243-.508a.868.868 0 0 1-.021-.697C.409 28.99 1.5 26.84 4.16 25.394c2.123-1.154 3.734-.84 5.068.443a.744.744 0 0 0 1.07-.018L29.301 5.56a.877.877 0 0 0 .208-.762c-.32-1.658.139-3.02 1.91-3.985 2.543-1.386 4.657-.582 4.657-.582l.281.586-2.252 1.229c-1.26.688-1.759 2.327-1.113 3.67l.021.051c.641 1.344 2.183 1.875 3.444 1.187l2.252-1.228.304.628s-.637 2.244-3.188 3.639c-1.382.752-2.478.679-3.4.018l-.014-.004Z" fill="#D8DADC"/><path d="M32.004 10.446 12.638 31.092a.863.863 0 0 0-.2.795c.58 2.378.04 4.327-2.447 5.68-2.66 1.45-4.968 1.09-5.822.877a.782.782 0 0 1-.507-.425l-.216-.457 3.47-1.889c1.667-.91 1.849-2.826.996-4.608l3.417-1.82L30.96 8.317c-.199-.332-.394-.697-.58-1.085l2.63-1.464c.64 1.344 1.818 2.074 3.079 1.386l2.616-1.423.303.628S38.372 8.604 35.82 10c-1.156.627-2.114.678-2.932.29a.75.75 0 0 0-.875.162l-.009-.005Z" fill="#B1B1B2"/><path d="M35.608 9.749c-1.239.674-2.196.743-3.006.323a1.132 1.132 0 0 0-1.36.24L12.438 30.358a.937.937 0 0 0-.208.896c.728 2.558.078 4.498-2.555 5.86-2.86 1.478-6.017.891-6.017.891l-.212-.443 2.984-1.625c1.668-.91 2.33-3.09 1.477-4.868l-.03-.064c-.853-1.778-2.898-2.485-4.566-1.575L.327 31.055l-.2-.42s1.382-3.343 4.22-4.728c2.321-1.132 3.911-.947 5.228.392a.804.804 0 0 0 1.174-.014L29.33 6.475c.295-.314.412-.771.312-1.205-.398-1.746.156-3.053 2.092-4.055C34.032.024 36.253.62 36.253.62l.096.203-2.253 1.228c-1.26.688-1.758 2.328-1.113 3.671l.022.051c.64 1.344 2.183 1.875 3.443 1.187l2.253-1.228.082.17s-.624 2.457-3.175 3.852v-.005Z" fill="#6D6D6E"/><path d="M11.346 27.036 29.194 8.03a.951.951 0 0 1 1.403.001l.049.052a1.11 1.11 0 0 1 0 1.496L12.796 28.585a.951.951 0 0 1-1.402 0l-.05-.053a1.11 1.11 0 0 1 .001-1.496Z" fill="#B1B1B2"/><defs><linearGradient id="a" x1="2.854" y1="3.036" x2="42.439" y2="5.016" gradientUnits="userSpaceOnUse"><stop stop-color="#040E1D"/><stop offset=".203" stop-color="#0E305F"/><stop offset=".396" stop-color="#133F7B"/><stop offset=".578" stop-color="#19519D"/><stop offset=".786" stop-color="#1161CD"/><stop offset="1" stop-color="#1161CD"/></linearGradient><linearGradient id="b" x1="1.871" y1=".706" x2="37.931" y2="2.005" gradientUnits="userSpaceOnUse"><stop stop-color="#040E1D"/><stop offset=".203" stop-color="#0E305F"/><stop offset=".396" stop-color="#133F7B"/><stop offset=".578" stop-color="#19519D"/><stop offset=".786" stop-color="#1161CD"/><stop offset="1" stop-color="#1161CD"/></linearGradient></defs></svg>