<svg width="40" height="40" fill="none" xmlns="http://www.w3.org/2000/svg"><path d="M10.326 16.075c2.193-.198 2.686-.312 4.474 1.58 1.792 1.896 18.282 20.513 18.282 20.513 1.48 1.659 4.035 1.69 5.654 0l.06-.062c1.618-1.685 1.593-4.349 0-5.885l-20.952-19.21c-1.607-1.527-1.08-5.406-1.8-7.6-.043-.128-.178-.19-.291-.132l-9.07 4.533c-1.185.58-2.597.053-3.158-1.185L1.071 3.33l-.3.15a.405.405 0 0 0-.218.328C.35 6.57.152 9.65 1.763 12.867c1.72 3.44 5.565 3.471 8.567 3.2l-.004.008Zm24.915 20.701a1.676 1.676 0 0 1 0-2.304 1.522 1.522 0 0 1 2.213 0 1.677 1.677 0 0 1 0 2.304 1.522 1.522 0 0 1-2.213 0Z" fill="#D8DADC"/><path d="M1.763 12.876C.156 9.659.35 6.578.553 3.817a.402.402 0 0 1 .219-.329l.3-.15 1.9 5.873 12.376 6.403s9.343 9.844 15.191 17.792c4.41 5.99 6.097 6.293 8.26 4.71l-.059.06c-1.619 1.686-4.178 1.66-5.654 0 0 0-16.49-18.616-18.282-20.512-1.792-1.896-2.285-1.778-4.474-1.58-3.002.267-6.847.241-8.567-3.2v-.008Z" fill="#B1B1B2"/><path d="M10.326 16.075c2.192-.198 3.34-.996 5.131.9 1.792 1.896 18.278 20.512 18.278 20.512 1.48 1.66 3.276 1.11 4.402-.06 1.126-1.173 1.594-2.985 0-4.521l-20.8-19.368c-.762-.706-.678-3.63-.733-4.13-.156-1.421-.206-2.914-.565-3.998-.042-.123-.177-.184-.29-.127l-9.07 4.534c-1.185.579-2.597.052-3.158-1.185L1.067 3.334l-.3.145a.395.395 0 0 0-.219.334C.371 6.547.654 9.128 2.26 12.345c1.72 3.44 5.06 3.993 8.062 3.725l.004.005Zm24.915 20.701a1.676 1.676 0 0 1 0-2.304 1.522 1.522 0 0 1 2.213 0 1.676 1.676 0 0 1 0 2.304 1.522 1.522 0 0 1-2.213 0Z" fill="#6D6D6E"/><path d="M34.393 36.803S17.773 18.322 15.98 16.426c-.434-.505-.67-1.185.228-1.865.65-.496 1.379.136 1.379.136l19.897 18.889c.906.9 1.126 1.983 0 3.155-.004.005-.013.009-.017.018a1.677 1.677 0 0 0-.013-2.291 1.522 1.522 0 0 0-2.213 0 1.676 1.676 0 0 0 0 2.304 1.52 1.52 0 0 0 2.091.114c-1.084.992-2.26.689-2.939-.088v.005Z" fill="#9B9B9B"/><path d="M13.623 5.678c-2.1-2.164-4.41-3.884-6.607-5.495A.923.923 0 0 0 6.046.1l-.37.246L9.33 8.6l4.158-2.12c.299-.15.37-.566.134-.807v.004Z" fill="#B1B1B2"/><path d="M13.623 5.678c-2.1-2.164-4.41-3.884-6.607-5.495A.923.923 0 0 0 6.046.1L9.74 7.837c.084.176.29.25.46.163l3.23-1.646c.299-.15.43-.435.193-.676Z" fill="#6D6D6E"/><path d="M12.42 7.45 8.642 9.334l2.238 4.86 3.78-1.884-2.238-4.86Z" fill="#98989C"/><path d="m14.395 12.436.261-.127-2.234-4.858.004.702 1.969 4.283Z" fill="#68676C"/><path d="m10.878 14.192 3.778-1.883-.565-.561-3.187 1.588-.026.856Z" fill="#EDEEEF"/><g fill="#504F53"><path d="M11.853 8.004c.168-.084.759.838 1.32 2.058.56 1.22.88 2.278.712 2.361-.169.084-.759-.838-1.32-2.058-.56-1.22-.881-2.278-.712-2.361Z"/><path d="M11.245 8.307c.17-.084.76.838 1.32 2.058.56 1.22.881 2.278.713 2.361-.169.083-.76-.838-1.32-2.058-.56-1.22-.881-2.278-.713-2.361ZM10.634 8.614c.169-.083.759.838 1.32 2.058.56 1.22.88 2.278.712 2.362-.168.083-.759-.839-1.32-2.059-.56-1.22-.88-2.277-.712-2.36ZM10.023 8.917c.168-.084.758.838 1.32 2.058.56 1.22.88 2.278.712 2.361-.169.084-.76-.838-1.32-2.058-.56-1.22-.881-2.278-.712-2.361Z"/><path d="M9.415 9.22c.169-.084.76.838 1.32 2.058.56 1.22.881 2.278.713 2.361-.169.083-.76-.838-1.32-2.058-.56-1.22-.881-2.278-.713-2.361Z"/></g><path d="M34.343 2.215 32.42 4.217a.626.626 0 0 0-.143.232l-.338.953c-.076.21-.194.399-.345.557L16.035 22.153l1.008 1.05L32.576 7.033c.169-.175.371-.303.594-.377l.911-.307a.656.656 0 0 0 .249-.158l1.91-1.989-1.901-1.979.004-.009Z" fill="#D8DADC"/><path d="M35.295 3.203 16.566 22.697l.48.5L32.58 7.03c.169-.176.371-.303.595-.378l.91-.307a.657.657 0 0 0 .25-.158l1.91-1.988-.95-.988v-.008Z" fill="#98989C"/><path d="M34.343 2.215 32.407 4.23a.421.421 0 0 0-.105.202l-.224 1.189c-.038.197-.13.377-.265.518l-15.58 16.216.616.64L32.416 6.794a.937.937 0 0 1 .527-.281l1.16-.198a.37.37 0 0 0 .206-.11l1.93-2.01-1.9-1.979h.004Z" fill="#6D6D6E"/><path d="M35.898 4.55s-1.138.87-1.96.013c-.818-.851.059-1.992.059-1.992l.346-.36 1.901 1.98-.346.36Z" fill="#98989C"/><path d="M13.628 21.938c-1.868 1.378-4.082 3.687-6.536 6.236C1.234 34.272-.995 38.054.405 39.52c1.4 1.466 5.033-.854 10.9-6.96 2.453-2.554 4.667-4.859 5.99-6.803l-3.667-3.818Z" fill="#739CED"/><path d="M14.087 22.412c-1.77 1.475-3.989 3.783-6.442 6.333-5.858 6.097-8.33 9.627-7.413 10.59.917.963 4.308-1.61 10.174-7.715 2.454-2.555 4.668-4.859 6.085-6.706l-2.408-2.506.004.004Z" fill="url(#a)"/><path d="M16.874 25.313c-1.433 1.83-3.647 4.138-6.101 6.688C4.915 38.1 1.562 40.71.713 39.835c-.85-.875 1.66-4.365 7.526-10.471 2.454-2.555 4.667-4.859 6.426-6.35l2.21 2.299Z" fill="url(#b)"/><path d="M14.627 22.979c-1.72 1.527-3.938 3.835-6.392 6.385-5.858 6.098-8.461 9.49-7.809 10.178.652.687 3.912-2.022 9.778-8.128 2.454-2.555 4.667-4.859 6.135-6.654l-1.716-1.786.004.005Z" fill="#739CED"/><path d="m14.057 19.975-.516.537a.971.971 0 0 0 0 1.334l3.843 4a.882.882 0 0 0 1.282 0l.516-.537a.971.971 0 0 0 0-1.334l-3.843-4a.882.882 0 0 0-1.282 0Z" fill="url(#c)"/><path d="m16.925 25.37-2.926-3.046c-.27-.28-.203-.807.151-1.176l.519-.54c.354-.368.86-.439 1.13-.158l2.926 3.046c.27.281.202.808-.152 1.176l-.518.54c-.354.369-.86.439-1.13.158Z" fill="#739CED"/><path d="m15.989 24.396-1.012-1.053c-.093-.097.118-.474.472-.843l.519-.54c.354-.369.716-.588.81-.491l1.011 1.053c.093.096-.118.474-.472.843l-.519.54c-.354.368-.716.587-.81.49Z" fill="url(#d)"/><defs><linearGradient id="a" x1="-11.568" y1="11.215" x2="19.409" y2="12.547" gradientUnits="userSpaceOnUse"><stop stop-color="#040E1D"/><stop offset=".203" stop-color="#0E305F"/><stop offset=".396" stop-color="#133F7B"/><stop offset=".578" stop-color="#19519D"/><stop offset=".786" stop-color="#1161CD"/><stop offset="1" stop-color="#1161CD"/></linearGradient><linearGradient id="b" x1="-10.976" y1="11.911" x2="19.771" y2="13.233" gradientUnits="userSpaceOnUse"><stop stop-color="#040E1D"/><stop offset=".203" stop-color="#0E305F"/><stop offset=".396" stop-color="#133F7B"/><stop offset=".578" stop-color="#19519D"/><stop offset=".786" stop-color="#1161CD"/><stop offset="1" stop-color="#1161CD"/></linearGradient><linearGradient id="c" x1="8.28" y1="19.014" x2="11.859" y2="15.682" gradientUnits="userSpaceOnUse"><stop stop-color="#040E1D"/><stop offset=".203" stop-color="#0E305F"/><stop offset=".396" stop-color="#133F7B"/><stop offset=".578" stop-color="#19519D"/><stop offset=".786" stop-color="#1161CD"/><stop offset="1" stop-color="#1161CD"/></linearGradient><linearGradient id="d" x1="12.938" y1="19.503" x2="18.318" y2="19.734" gradientUnits="userSpaceOnUse"><stop stop-color="#040E1D"/><stop offset=".203" stop-color="#0E305F"/><stop offset=".396" stop-color="#133F7B"/><stop offset=".578" stop-color="#19519D"/><stop offset=".786" stop-color="#1161CD"/><stop offset="1" stop-color="#1161CD"/></linearGradient></defs></svg>