<svg width="40" height="40" fill="none" xmlns="http://www.w3.org/2000/svg"><path d="M6.481 29.989c2.61-2.705 7.984-7.306 9.7-9.084L29.95 6.639l2.934 3.04-13.769 14.266c-1.73 1.792-6.157 7.346-8.767 10.05-4.884 5.061-7.97 6.923-9.258 5.586-1.287-1.337.51-4.534 5.391-9.592Z" fill="url(#a)"/><path d="m31.417 8.158 1.467 1.52-13.769 14.266c-1.73 1.793-6.157 7.347-8.767 10.051-4.884 5.06-7.97 6.923-9.258 5.586C5.58 34.93 31.417 8.154 31.417 8.154v.004Z" fill="url(#b)"/><path d="M30.46 7.167 8.728 29.685l1.923 1.992L32.383 9.16 30.46 7.167Z" fill="#739CED"/><path d="M6.481 29.988c2.61-2.704 7.984-7.305 9.7-9.084l2.934 3.04c-1.73 1.793-6.157 7.347-8.767 10.051-4.884 5.06-7.97 6.923-9.258 5.586-1.287-1.337.51-4.535 5.391-9.593Z" fill="#6D6D6E"/><path d="M7.51 30.26c2.505-2.595 7.515-7.146 9.162-8.852l1.953 2.024c-1.655 1.715-6.039 6.897-8.544 9.492-4.683 4.853-7.452 6.834-8.307 5.945-.856-.89 1.056-3.759 5.736-8.608Z" fill="#000"/><path d="M36.96 13.971 40 10.822l-.118-.554-7.813-8.1L26.061 0l-1.507 1.556 11.873 12.297.534.118Z" fill="#D8DADC"/><path d="M36.96 13.971 40 10.822l-.7-.29-6.657-6.897-7.388-2.078h-.7l11.872 12.296.534.118Z" fill="#98989C"/><path d="m36.667 13.263 2.575-2.668a.087.087 0 0 0 0-.118l-7.58-7.854s-.018-.014-.03-.018L26.244.604a.09.09 0 0 0-.083.018l-.85.88a.087.087 0 0 0 0 .118l11.242 11.648a.08.08 0 0 0 .113 0v-.005Z" fill="#6D6D6E"/><path d="M33.519 29.989c-2.61-2.705-7.984-7.306-9.7-9.084L10.05 6.639l-2.934 3.04 13.769 14.266c1.73 1.792 6.157 7.346 8.767 10.05 4.884 5.061 7.97 6.923 9.258 5.586 1.287-1.337-.51-4.534-5.391-9.592Z" fill="url(#c)"/><path d="m8.583 8.158-1.467 1.52 13.769 14.266c1.73 1.793 6.157 7.347 8.767 10.051 4.884 5.06 7.97 6.923 9.258 5.586L8.579 8.154l.004.004Z" fill="url(#d)"/><path d="M9.538 7.166 7.615 9.158l21.731 22.518 1.924-1.993L9.538 7.166Z" fill="#739CED"/><path d="M33.519 29.988c-2.61-2.704-7.984-7.305-9.7-9.084l-2.934 3.04c1.73 1.793 6.157 7.347 8.767 10.051 4.884 5.06 7.97 6.923 9.258 5.586 1.287-1.337-.51-4.535-5.391-9.593Z" fill="#6D6D6E"/><path d="M32.49 30.26c-2.505-2.595-7.515-7.146-9.162-8.852l-1.953 2.024c1.655 1.715 6.04 6.897 8.544 9.492 4.683 4.853 7.452 6.834 8.307 5.945.856-.89-1.056-3.759-5.736-8.608Z" fill="#000"/><path d="M3.04 13.971 0 10.822l.114-.554 7.817-8.1L13.939 0l1.502 1.556L3.573 13.853l-.534.118Z" fill="#D8DADC"/><path d="M3.04 13.971 0 10.822l.696-.29 6.657-6.897 7.392-2.078h.696L3.573 13.853l-.534.118Z" fill="#98989C"/><path d="M3.333 13.263.758 10.595a.087.087 0 0 1 0-.118l7.58-7.854s.018-.014.03-.018L13.756.604a.09.09 0 0 1 .083.018l.85.88c.03.032.03.086 0 .118L3.446 13.268a.08.08 0 0 1-.113 0v-.005Z" fill="#6D6D6E"/><defs><linearGradient id="a" x1="-22.051" y1="-15.167" x2="38.597" y2="-12.547" gradientUnits="userSpaceOnUse"><stop stop-color="#040E1D"/><stop offset=".203" stop-color="#0E305F"/><stop offset=".396" stop-color="#133F7B"/><stop offset=".578" stop-color="#19519D"/><stop offset=".786" stop-color="#1161CD"/><stop offset="1" stop-color="#1161CD"/></linearGradient><linearGradient id="b" x1="-21.364" y1="-12.661" x2="38.517" y2="-9.985" gradientUnits="userSpaceOnUse"><stop stop-color="#040E1D"/><stop offset=".203" stop-color="#0E305F"/><stop offset=".396" stop-color="#133F7B"/><stop offset=".578" stop-color="#19519D"/><stop offset=".786" stop-color="#1161CD"/><stop offset="1" stop-color="#1161CD"/></linearGradient><linearGradient id="c" x1="-15.623" y1="-15.167" x2="45.025" y2="-12.547" gradientUnits="userSpaceOnUse"><stop stop-color="#040E1D"/><stop offset=".203" stop-color="#0E305F"/><stop offset=".396" stop-color="#133F7B"/><stop offset=".578" stop-color="#19519D"/><stop offset=".786" stop-color="#1161CD"/><stop offset="1" stop-color="#1161CD"/></linearGradient><linearGradient id="d" x1="-15.338" y1="-12.661" x2="44.543" y2="-9.985" gradientUnits="userSpaceOnUse"><stop stop-color="#040E1D"/><stop offset=".203" stop-color="#0E305F"/><stop offset=".396" stop-color="#133F7B"/><stop offset=".578" stop-color="#19519D"/><stop offset=".786" stop-color="#1161CD"/><stop offset="1" stop-color="#1161CD"/></linearGradient></defs></svg>