<svg width="40" height="40" fill="none" xmlns="http://www.w3.org/2000/svg"><path d="M9.831 1.027C7.087-.425 4.725.027 4.004.225a.519.519 0 0 0-.33.272l-.263.534L6.338 2.58c1.635.866 2.286 2.94 1.448 4.632l-.031.06C6.917 8.963 4.912 9.636 3.273 8.77L.346 7.22l-.29.585a.547.547 0 0 0-.018.443c.277.714 1.32 2.903 4.068 4.355 2.01 1.06 3.55.82 4.834-.3a.97.97 0 0 1 1.34.056l19.025 19.68c.245.254.374.618.32.973a5.61 5.61 0 0 0 1.413 4.618l.913-.945-.045-.014-1.069-3.931 1.11-1.148-.352-.364 2.04-2.11L12.108 6.847c.748-2.457.311-4.466-2.277-5.835v.014Z" fill="#D8DADC"/><path d="M32.78 28.247 12.678 7.452a1.477 1.477 0 0 1-.379-1.332c.446-2.12-.147-3.863-2.472-5.093C7.082-.425 4.72.027 3.999.225a.519.519 0 0 0-.33.272l-.262.534L6.806 2.83c1.635.866 1.813 2.692.976 4.383l3.35 1.733 20.204 20.901c-.049.042-.098.079-.142.125l1.162 1.203 1.199-1.24 3.8 1.106.013.046.914-.945c-1.212-1.189-2.816-1.682-4.33-1.484a1.38 1.38 0 0 1-1.172-.41Z" fill="#B1B1B2"/><path d="M32.236 28.584 12.482 8.146a1.518 1.518 0 0 1-.374-1.42c.574-2.285-.112-4.032-2.589-5.272C6.712.05 3.62.607 3.62.607l-.209.424L6.338 2.58c1.635.866 2.286 2.94 1.448 4.632l-.031.06C6.917 8.963 4.912 9.636 3.273 8.77L.346 7.22l-.196.396s1.354 3.185 4.139 4.499c2.067.977 3.542.921 4.758-.046.583-.461 1.399-.434 1.92.101l18.582 19.224c.352.364.473.894.352 1.392-.472 1.922.107 4.065 1.747 5.443a5.004 5.004 0 0 0 6.41.028c2.433-2.015 2.58-5.697.438-7.91a4.999 4.999 0 0 0-4.924-1.377c-.48.129-.993-.033-1.345-.397l.009.01Zm6.108 6.558L35.871 37.7c-.08.083-.196.115-.303.083l-3.377-.936a.326.326 0 0 1-.222-.23l-.905-3.494c-.03-.11 0-.23.08-.313l2.473-2.558c.08-.083.196-.115.303-.083l3.377.936c.107.032.192.12.223.23l.904 3.494c.031.11 0 .23-.08.313Z" fill="#6D6D6E"/><path d="m30.855 30.007.05-.052a1.03 1.03 0 0 0 0-1.42L12.58 9.576a.948.948 0 0 0-1.374 0l-.05.052a1.03 1.03 0 0 0 0 1.42L29.48 30.008a.948.948 0 0 0 1.373 0Z" fill="#B1B1B2"/><path d="M26.694 13.098c.82.848 2.152.848 2.971 0 .82-.848.82-2.226 0-3.074-.013-.014-.026-.023-.04-.037l7.53-7.79.81.84c.058.06.072.152.031.225L32.53 13.273l-3.716 3.844c-.222.23-.525.364-.842.368l-1.501.028-2.063-2.134 2.25-2.327s.022.027.036.041v.005Z" fill="#98989C"/><path d="m26.44 13.284 3.264-3.376-1.603-1.659-3.264 3.377 1.604 1.659Z" fill="#898989"/><path d="m28.04 14.944 3.264-3.376-1.603-1.659-3.264 3.376 1.604 1.66Z" fill="#B1B1B2"/><path d="M26.703 13.112a2.229 2.229 0 0 1 0-3.075 2.054 2.054 0 0 1 2.971 0c.014.014.022.028.036.042l7.529-7.79-.81-.838a.178.178 0 0 0-.22-.032l-9.676 5.655-3.715 3.844c-.223.23-.352.544-.357.87l-.027 1.554 2.063 2.134 2.25-2.327s-.027-.023-.04-.037h-.005Z" fill="#D8DADC"/><path d="m29.576 9.954 7.445-7.701a.128.128 0 0 0 0-.18l-.17-.175a.118.118 0 0 0-.151-.019l-9.24 5.964c-.076.051-.147.111-.214.176l-3.885 4.019a1.416 1.416 0 0 0-.147.18l-.784 1.129-.77.81c-.522.54-1.547.775-2.843 1.075-2.277.525-5.4 1.249-8.861 4.249-3.529 3.06-4.776 5.761-5.877 8.149-.717 1.553-1.336 2.894-2.517 4.12l1.786 1.848c1.493-1.544 2.233-3.148 3.012-4.844 1.038-2.249 2.107-4.572 5.217-7.268 2.99-2.59 5.654-3.208 7.788-3.701 1.63-.378 3.038-.7 4.08-1.78l.642-.663a.186.186 0 0 1 .272 0l.13.134 2.25-2.328s-.028-.023-.04-.037a2.229 2.229 0 0 1 0-3.074 2.11 2.11 0 0 1 1.759-.613c.428.051.89.295 1.11.526l.008.004Z" fill="#6D6D6E"/><path d="M20.537 30.423c2.9-3.581 3.6-6.812 4.107-9.167.29-1.342.517-2.402 1.038-2.94l.785-.798 1.091-.812c.062-.046.12-.096.174-.151l3.885-4.02a1.19 1.19 0 0 0 .169-.22l5.765-9.56a.129.129 0 0 0-.018-.156l-.267-.277a.118.118 0 0 0-.174 0c-.837.862-7.458 7.692-7.449 7.706.82.848.833 2.226.013 3.074a2.054 2.054 0 0 1-2.971 0c-.014-.014-.022-.027-.036-.041l-2.25 2.327.134.139a.2.2 0 0 1 0 .272l-.646.668c-1.043 1.078-1.355 2.535-1.72 4.222-.477 2.212-1.069 4.963-3.577 8.056-2.602 3.217-4.852 4.323-7.026 5.397-1.64.811-3.19 1.576-4.683 3.116l1.787 1.848c1.185-1.226 2.482-1.867 3.983-2.604 2.303-1.139 4.919-2.429 7.877-6.08h.009Z" fill="#6D6D6E"/><path d="M6.868 39.452c.593.613 1.707.774 2.299.161 1.154-1.194 2.433-1.825 3.916-2.553 2.33-1.148 4.968-2.452 7.962-6.149 2.94-3.632 3.488-7.056 4.005-9.439.28-1.3.503-2.327.971-2.811l-2.299-2.378c-1.091 1.129-1.417 2.622-1.786 4.346-.473 2.184-1.056 4.904-3.524 7.946-2.571 3.17-4.79 4.268-6.942 5.328-1.59.783-3.23 1.594-4.753 3.17-.593.614-.437 1.766.156 2.379h-.005Z" fill="#739CED"/><path d="M7.639 38.032c1.154-1.194 2.432-1.825 3.916-2.553 2.33-1.148 4.968-2.452 7.961-6.149 2.94-3.632 3.489-7.056 4.006-9.439.28-1.3.503-2.327.97-2.811l-.774-.802c-1.092 1.129-1.417 2.622-1.787 4.346-.472 2.185-1.056 4.904-3.524 7.946-2.57 3.17-4.79 4.268-6.941 5.328-1.59.783-3.23 1.594-4.754 3.17-.343.356-.436.886-.338 1.393.07.373.677.184 1.27-.43h-.005Z" fill="url(#a)"/><path d="M1.232 33.621c-.592-.613-.748-1.765-.156-2.378 1.154-1.194 1.765-2.516 2.469-4.051 1.109-2.41 2.37-5.139 5.943-8.236 3.51-3.042 6.82-3.609 9.124-4.144 1.256-.29 2.25-.52 2.718-1.004l2.299 2.378c-1.092 1.129-2.536 1.465-4.202 1.848-2.111.489-4.74 1.092-7.68 3.646-3.066 2.659-4.126 4.954-5.15 7.18-.758 1.646-1.542 3.342-3.066 4.918-.592.613-1.706.452-2.299-.161v.004Z" fill="url(#b)"/><path d="M26.386 15.121a1.19 1.19 0 0 1-1.724 0 1.291 1.291 0 0 1 0-1.783 1.19 1.19 0 0 1 1.724 0 1.29 1.29 0 0 1 0 1.783Z" fill="#898989"/><path d="M26.128 14.854a.827.827 0 0 1-1.203 0 .898.898 0 0 1 0-1.244.827.827 0 0 1 1.203 0 .898.898 0 0 1 0 1.244Z" fill="#504F53"/><path d="M24.239 16.112s.463.097 1.087.742c.566.585.7 1.106.7 1.106l.436-.452-1.92-1.986s.125.143 0 .272l-.303.313v.005Z" fill="#39373A"/><path d="M1.94 32.142c1.155-1.194 1.765-2.517 2.469-4.052 1.11-2.41 2.37-5.139 5.943-8.236 3.51-3.042 6.821-3.609 9.124-4.143 1.257-.29 2.25-.521 2.718-1.005l1.43 1.48c-1.091 1.129-2.535 1.465-4.201 1.848-2.112.488-4.74 1.092-7.68 3.645-3.066 2.66-4.126 4.955-5.151 7.181-.757 1.645-1.542 3.342-3.065 4.918-.343.355-.856.452-1.346.35-.36-.074-1.22-.977-.24-1.991v.005Z" fill="#739CED"/><defs><linearGradient id="a" x1="37.315" y1="53.276" x2="3.097" y2="52.033" gradientUnits="userSpaceOnUse"><stop stop-color="#040E1D"/><stop offset=".203" stop-color="#0E305F"/><stop offset=".396" stop-color="#133F7B"/><stop offset=".578" stop-color="#19519D"/><stop offset=".786" stop-color="#1161CD"/><stop offset="1" stop-color="#1161CD"/></linearGradient><linearGradient id="b" x1="39.82" y1="47.471" x2="-3.337" y2="45.296" gradientUnits="userSpaceOnUse"><stop stop-color="#040E1D"/><stop offset=".203" stop-color="#0E305F"/><stop offset=".396" stop-color="#133F7B"/><stop offset=".578" stop-color="#19519D"/><stop offset=".786" stop-color="#1161CD"/><stop offset="1" stop-color="#1161CD"/></linearGradient></defs></svg>