<svg width="40" height="41" fill="none" xmlns="http://www.w3.org/2000/svg"><g clip-path="url(#a)"><path d="m34.73 12.238-3.99-4.14L38.06.5 40 6.768l-5.27 5.47Z" fill="#EDEEEF"/><path d="m34.73 12.238-3.779-3.92 7.21-7.484L40 6.768l-5.27 5.47Z" fill="#D8DADC"/><path d="M29.726 6.314a2.317 2.317 0 0 0-3.331.038c-1.332 1.382-.35 3.787-1.898 5.393-1.488 1.545-5.552 4.61-8.745 7.928-3.852 4.006-6.56 7.468-6.56 7.468-1.696 1.64-3.622.249-6.082 2.802s-2.322 6.455.12 8.855c2.354 2.314 6.09 2.166 8.38-.21L35.485 13.8a1.1 1.1 0 0 0 0-1.51l-5.76-5.977Z" fill="url(#b)"/><path d="M31.302 7.954c-.936-.927-2.13-.621-3.046.335-1.331 1.382-.935 3.18-2.483 4.786L11.099 28.303c-2.318 2.405-3.926 1.052-6.243 3.457l6.625 6.875 23.967-24.872a1.1 1.1 0 0 0 0-1.51l-4.142-4.299h-.005Z" fill="#739CED"/><path d="M25.086 10.861c-.027-.048-.414.521-.681.794-1.489 1.544-5.552 4.609-8.745 7.927-3.852 4.007-6.56 7.469-6.56 7.469-.12.143-.263.334-.231.363.732.76 4.934-2.357 9.376-6.971 4.349-4.514 7.403-8.693 6.841-9.587v.005ZM22.861 26.3c-5.52 5.728-10.025 10.337-9.703 10.671.323.335 5.059-4.035 10.574-9.763 5.52-5.728 9.73-10.638 9.408-10.978-.323-.334-4.764 4.342-10.284 10.07h.005ZM3.271 29.771c-.055.057-.115.11-.17.167-2.364 2.453-2.322 6.455.12 8.855 2.354 2.314 6.09 2.166 8.38-.21l.078-.081-8.408-8.731Z" fill="#000"/><path d="M15.568 24.387a.504.504 0 0 1 0 .693.456.456 0 0 1-.571.077l3.33 3.457a.5.5 0 0 1 .074-.593.46.46 0 0 1 .668 0 .504.504 0 0 1 0-.694.46.46 0 0 1 .668 0 .504.504 0 0 1 0-.693.46.46 0 0 1 .669 0 .504.504 0 0 1 0-.693.46.46 0 0 1 .668 0 .504.504 0 0 1 0-.693.46.46 0 0 1 .668 0 .504.504 0 0 1 0-.694.46.46 0 0 1 .668 0 .504.504 0 0 1 0-.693.46.46 0 0 1 .668 0 .504.504 0 0 1 0-.693.46.46 0 0 1 .668 0 .504.504 0 0 1 0-.694.46.46 0 0 1 .668 0 .504.504 0 0 1 0-.693.46.46 0 0 1 .668 0 .504.504 0 0 1 0-.693.46.46 0 0 1 .668 0 .504.504 0 0 1 0-.693.46.46 0 0 1 .668 0 .504.504 0 0 1 0-.694.46.46 0 0 1 .668 0 .504.504 0 0 1 0-.693.46.46 0 0 1 .668 0 .504.504 0 0 1 0-.693.46.46 0 0 1 .668 0 .504.504 0 0 1 0-.694.46.46 0 0 1 .668 0 .504.504 0 0 1 0-.693.46.46 0 0 1 .668 0 .504.504 0 0 1 0-.693.46.46 0 0 1 .668 0 .504.504 0 0 1 0-.693.46.46 0 0 1 .668 0 .504.504 0 0 1 0-.694.46.46 0 0 1 .668 0 .504.504 0 0 1 0-.693.46.46 0 0 1 .668 0 .504.504 0 0 1 0-.693.458.458 0 0 1 .66-.01.53.53 0 0 0-.075-.626l-2.8-2.907a.477.477 0 0 0-.604-.077.506.506 0 0 1-.01.684.46.46 0 0 1-.668 0 .504.504 0 0 1 0 .693.46.46 0 0 1-.668 0 .504.504 0 0 1 0 .694.46.46 0 0 1-.668 0 .504.504 0 0 1 0 .693.46.46 0 0 1-.668 0 .504.504 0 0 1 0 .693.46.46 0 0 1-.668 0 .504.504 0 0 1 0 .694.46.46 0 0 1-.668 0 .504.504 0 0 1 0 .693.46.46 0 0 1-.668 0 .504.504 0 0 1 0 .693.46.46 0 0 1-.668 0 .504.504 0 0 1 0 .693.46.46 0 0 1-.668 0 .504.504 0 0 1 0 .694.46.46 0 0 1-.668 0 .504.504 0 0 1 0 .693.46.46 0 0 1-.668 0 .504.504 0 0 1 0 .693.46.46 0 0 1-.668 0 .504.504 0 0 1 0 .694.46.46 0 0 1-.668 0 .504.504 0 0 1 0 .693.46.46 0 0 1-.668 0 .504.504 0 0 1 0 .693.46.46 0 0 1-.668 0 .504.504 0 0 1 0 .693.46.46 0 0 1-.668 0 .504.504 0 0 1 0 .694.46.46 0 0 1-.668 0 .504.504 0 0 1 0 .693.46.46 0 0 1-.668 0 .504.504 0 0 1 0 .693.46.46 0 0 1-.668 0 .504.504 0 0 1 0 .694.46.46 0 0 1-.668 0 .504.504 0 0 1 0 .693.46.46 0 0 1-.668 0l-.005-.005Z" fill="#D8DADC"/><path d="M17.729 29.412a.504.504 0 0 1 0-.693c.009-.01.018-.015.027-.024l-2.833-2.94-.023.028a.46.46 0 0 1-.668 0 .504.504 0 0 1 0 .693.46.46 0 0 1-.668 0 .504.504 0 0 1 0 .694.46.46 0 0 1-.668 0 .504.504 0 0 1 0 .693.46.46 0 0 1-.668 0 .504.504 0 0 1 0 .693.46.46 0 0 1-.668 0 .504.504 0 0 1 0 .694.46.46 0 0 1-.668 0 .504.504 0 0 1 0 .693.46.46 0 0 1-.668 0 .504.504 0 0 1 0 .693.46.46 0 0 1-.669 0 .504.504 0 0 1 0 .693.462.462 0 0 1-.658.01.522.522 0 0 0 .073.626l2.801 2.907a.477.477 0 0 0 .604.077.506.506 0 0 1 .01-.684.46.46 0 0 1 .667 0 .504.504 0 0 1 0-.693.46.46 0 0 1 .668 0 .504.504 0 0 1 0-.694.46.46 0 0 1 .668 0 .504.504 0 0 1 0-.693.46.46 0 0 1 .668 0 .504.504 0 0 1 0-.693.46.46 0 0 1 .669 0 .504.504 0 0 1 0-.693.46.46 0 0 1 .668 0 .504.504 0 0 1 0-.694.46.46 0 0 1 .668 0 .504.504 0 0 1 0-.693.46.46 0 0 1 .668 0Z" fill="url(#c)"/><path d="M18.636 28.939a2.75 2.75 0 0 1-3.99 0 3.008 3.008 0 0 1 0-4.14 2.75 2.75 0 0 1 3.99 0 3.008 3.008 0 0 1 0 4.14Z" fill="#000"/><path d="M16.641 28.298c.761 0 1.378-.64 1.378-1.43 0-.789-.617-1.429-1.378-1.429-.76 0-1.377.64-1.377 1.43 0 .79.617 1.43 1.377 1.43Z" fill="#D8DADC"/><path d="M.105.657.112.65a.341.341 0 0 1 .495 0l.41.426a.373.373 0 0 1 0 .514l-.003.004a.341.341 0 0 1-.495 0l-.41-.426A.366.366 0 0 1 .105.657Z" fill="#6D6D6E"/><path d="m.912.945 3.405 1.941.497.521-2.059 2.137-.41-.425-1.963-3.63.53-.544Z" fill="#E2DDAF"/><path d="m4.317 2.886 34.057 35.343c.276.287.055.521-.217.808l-1.069 1.11c-.276.286-.502.51-.778.224L2.345 5.119l.599-.196.06-.933.972-.282.341-.822Z" fill="#739CED"/><path d="M2.345 5.119 36.31 40.366c.276.287.502.058.778-.224l.66-.684L3.445 3.86l-.442.13-.06.932-.599.196Z" fill="url(#d)"/></g><defs><linearGradient id="b" x1="-23.004" y1="-17.137" x2="41.893" y2="-14.264" gradientUnits="userSpaceOnUse"><stop stop-color="#040E1D"/><stop offset=".203" stop-color="#0E305F"/><stop offset=".396" stop-color="#133F7B"/><stop offset=".578" stop-color="#19519D"/><stop offset=".786" stop-color="#1161CD"/><stop offset="1" stop-color="#1161CD"/></linearGradient><linearGradient id="c" x1="2.517" y1="19.696" x2="19.341" y2="20.422" gradientUnits="userSpaceOnUse"><stop stop-color="#040E1D"/><stop offset=".203" stop-color="#0E305F"/><stop offset=".396" stop-color="#133F7B"/><stop offset=".578" stop-color="#19519D"/><stop offset=".786" stop-color="#1161CD"/><stop offset="1" stop-color="#1161CD"/></linearGradient><linearGradient id="d" x1="-22.658" y1="-20.085" x2="44.028" y2="-17.201" gradientUnits="userSpaceOnUse"><stop stop-color="#040E1D"/><stop offset=".203" stop-color="#0E305F"/><stop offset=".396" stop-color="#133F7B"/><stop offset=".578" stop-color="#19519D"/><stop offset=".786" stop-color="#1161CD"/><stop offset="1" stop-color="#1161CD"/></linearGradient><clipPath id="a"><path fill="#fff" transform="translate(0 .5)" d="M0 0h40v40H0z"/></clipPath></defs></svg>