<svg width="40" height="40" fill="none" xmlns="http://www.w3.org/2000/svg"><path d="M38.708 13.065c1.546-3.267 1.36-6.39 1.16-9.193a.408.408 0 0 0-.207-.335l-.288-.15-2.359 5.372c-.538 1.253-1.893 1.793-3.033 1.201l-8.717-4.599c-.11-.06-.241 0-.28.13-.69 2.226-.19 6.16-1.732 7.714L3.116 32.695c-1.533 1.564-1.559 4.264 0 5.972l.055.06c1.559 1.714 4.015 1.681 5.434 0 0 0 15.846-18.893 17.57-20.816 1.72-1.922 2.194-1.801 4.3-1.606 2.884.275 6.577.247 8.233-3.249v.01ZM4.403 37.317a1.773 1.773 0 0 1 0-2.341 1.412 1.412 0 0 1 2.131 0 1.773 1.773 0 0 1 0 2.341 1.412 1.412 0 0 1-2.13 0Z" fill="#D8DADC"/><path d="M38.708 13.065c1.546-3.267 1.36-6.39 1.16-9.193a.408.408 0 0 0-.207-.335l-.288-.15-1.825 5.959-11.894 6.494s-8.98 9.99-14.6 18.051c-4.24 6.08-5.863 6.387-7.938 4.776l.055.06c1.559 1.714 4.015 1.681 5.434 0 0 0 15.846-18.893 17.57-20.816 1.72-1.922 2.194-1.801 4.3-1.606 2.884.275 6.577.247 8.233-3.249v.01Z" fill="#B1B1B2"/><path d="M38.221 12.53c1.546-3.263 1.817-5.884 1.644-8.658a.397.397 0 0 0-.212-.335l-.288-.15-2.36 5.372c-.537 1.253-1.893 1.793-3.032 1.201l-8.717-4.599c-.11-.055-.242 0-.28.13-.343 1.1-.394 2.617-.542 4.055-.05.508.025 3.473-.703 4.19L3.747 33.389c-1.533 1.564-1.084 3.398 0 4.59 1.084 1.191 2.813 1.745 4.231.06 0 0 15.846-18.894 17.57-20.817 1.72-1.922 2.825-1.112 4.93-.912 2.885.274 6.096-.289 7.747-3.78h-.004ZM4.404 37.317a1.773 1.773 0 0 1 0-2.341 1.412 1.412 0 0 1 2.13 0 1.773 1.773 0 0 1 0 2.341 1.412 1.412 0 0 1-2.13 0Z" fill="#6D6D6E"/><path d="M7.347 37.345S23.32 18.59 25.04 16.672c.42-.512.644-1.206-.22-1.894-.627-.503-1.326.135-1.326.135L4.374 34.082c-.873.912-1.084 2.015 0 3.202.004.005.013.01.017.019-.576-.647-.572-1.685.013-2.323.584-.638 1.541-.647 2.13 0a1.773 1.773 0 0 1 0 2.341c-.55.605-1.419.643-2.008.117 1.042 1.01 2.173.703 2.826-.089l-.005-.004Z" fill="#9B9B9B"/><path d="M27.31 5.761c2.02-2.197 4.24-3.942 6.354-5.576A.852.852 0 0 1 34.595.1l.356.251-3.515 8.38-3.999-2.151c-.288-.15-.356-.573-.127-.82Z" fill="#B1B1B2"/><path d="M27.31 5.761c2.02-2.197 4.24-3.942 6.354-5.576A.852.852 0 0 1 34.595.1l-3.553 7.848c-.08.177-.28.251-.44.163l-3.105-1.671c-.288-.15-.411-.438-.187-.684v.004Z" fill="#6D6D6E"/><path d="m28.464 7.564-2.15 4.929 3.634 1.912 2.148-4.928-3.632-1.913Z" fill="#98989C"/><path d="m26.565 12.618-.25-.13 2.147-4.93v.717l-1.897 4.343Z" fill="#68676C"/><path d="m29.949 14.401-3.634-1.913.542-.568 3.067 1.615.025.866Z" fill="#EDEEEF"/><g fill="#504F53"><path d="M29.009 8.121c-.161-.083-.729.848-1.271 2.086-.542 1.238-.847 2.309-.682 2.393.16.083.729-.848 1.27-2.086.539-1.238.848-2.309.683-2.393ZM29.597 8.433c-.16-.083-.728.848-1.27 2.086-.538 1.238-.847 2.309-.682 2.393.16.083.728-.848 1.27-2.086.538-1.238.848-2.309.682-2.393Z"/><path d="M30.182 8.74c-.161-.083-.729.848-1.27 2.086-.539 1.238-.848 2.309-.683 2.393.165.083.729-.848 1.27-2.086.543-1.238.848-2.309.683-2.392Z"/><path d="M30.767 9.048c-.162-.084-.73.847-1.271 2.085-.542 1.238-.847 2.309-.682 2.393.165.084.728-.847 1.27-2.086.538-1.238.848-2.308.683-2.392ZM31.355 9.355c-.16-.084-.728.847-1.27 2.085-.538 1.239-.848 2.31-.682 2.393.16.084.728-.847 1.27-2.085.538-1.239.847-2.31.682-2.393Z"/></g><path d="M9.342 1.134C6.733-.332 4.488.124 3.802.324A.501.501 0 0 0 3.489.6l-.25.54 2.783 1.564c1.554.875 2.172 2.97 1.376 4.678l-.03.06c-.796 1.71-2.702 2.389-4.26 1.514l-2.78-1.56-.275.592a.584.584 0 0 0-.016.446c.262.722 1.253 2.933 3.867 4.4 1.91 1.07 3.376.828 4.595-.303a.883.883 0 0 1 1.275.056l18.087 19.876c.233.256.355.624.305.982-.23 1.625.216 3.361 1.342 4.664l.869-.954-.043-.014-1.016-3.97 1.054-1.16-.334-.367 1.94-2.132L11.507 7.028c.711-2.481.296-4.511-2.165-5.894Z" fill="#D8DADC"/><path d="M31.16 28.626 12.05 7.623a1.556 1.556 0 0 1-.36-1.345c.423-2.141-.14-3.9-2.351-5.144-2.61-1.466-4.854-1.01-5.54-.81A.501.501 0 0 0 3.484.6l-.25.54 3.232 1.816c1.555.875 1.724 2.718.928 4.426l3.185 1.75 19.209 21.11c-.047.043-.093.08-.136.126l1.106 1.215 1.14-1.252 3.612 1.117.013.047.868-.954c-1.152-1.201-2.677-1.7-4.117-1.5a1.267 1.267 0 0 1-1.114-.414Z" fill="#B1B1B2"/><path d="m30.643 28.966-18.78-20.64a1.6 1.6 0 0 1-.356-1.434c.546-2.309-.106-4.073-2.461-5.325C6.377.147 3.438.71 3.438.71l-.2.429 2.783 1.564c1.555.875 2.173 2.97 1.377 4.678l-.03.06C6.572 9.15 4.666 9.83 3.108 8.954l-2.78-1.56-.186.401s1.288 3.217 3.935 4.543c1.966.987 3.368.931 4.524-.046.555-.466 1.33-.438 1.826.102L28.094 31.81c.334.368.449.903.334 1.406-.449 1.94.102 4.105 1.66 5.497 1.758 1.573 4.33 1.583 6.096.028 2.312-2.034 2.448-5.753.415-7.988-1.27-1.396-3.063-1.857-4.68-1.392-.458.13-.945-.032-1.28-.4l.005.005Zm5.808 6.624L34.1 38.173a.275.275 0 0 1-.288.084l-3.21-.945a.322.322 0 0 1-.213-.233l-.86-3.528a.343.343 0 0 1 .077-.317l2.35-2.583c.077-.084.187-.117.289-.084l3.21.945a.33.33 0 0 1 .212.233l.86 3.528c.03.112 0 .233-.076.317Z" fill="#6D6D6E"/><path d="m10.65 9.77-.048.053a1.087 1.087 0 0 0 0 1.436l17.423 19.146a.866.866 0 0 0 1.306 0l.047-.052c.361-.397.361-1.04 0-1.435L11.956 9.77a.866.866 0 0 0-1.306 0Z" fill="#B1B1B2"/></svg>