<svg width="36" height="36" fill="none" xmlns="http://www.w3.org/2000/svg"><path d="M34.945 22v-1.568a.527.527 0 1 0-1.054 0V22h-5.063v-4.695c0-.707-.575-1.282-1.282-1.282H25.23V10.96h4.457a4.21 4.21 0 0 1 4.205 4.205v2.806a.527.527 0 0 0 1.054 0v-2.806c0-2.9-2.359-5.26-5.26-5.26h-4.59a2.64 2.64 0 0 0-2.503-1.81h-1.748V6.1a1.585 1.585 0 0 0 1.47-1.22h5.284c.99.004 1.828-.837 1.828-1.829a1.83 1.83 0 0 0-1.828-1.828h-5.285A1.584 1.584 0 0 0 20.773 0h-3.437c-.748 0-1.376.523-1.54 1.222h-5.284c-1-.005-1.828.83-1.828 1.828a1.83 1.83 0 0 0 1.828 1.828h5.284a1.585 1.585 0 0 0 1.47 1.22v1.998h-1.749a2.64 2.64 0 0 0-2.503 1.81H9.05A1.584 1.584 0 0 0 7.559 8.85c-.688 0-1.274.44-1.492 1.055H.527a.527.527 0 1 0 0 1.054h5.45v5.063H.527a.527.527 0 0 0 0 1.055h5.54a1.585 1.585 0 0 0 1.492 1.054c.687 0 1.273-.44 1.49-1.055h3.965a2.64 2.64 0 0 0 2.503 1.81h.892a.527.527 0 1 0 0-1.054h-.892c-.79 0-1.446-.582-1.563-1.339v-.006c.02-.096-.022-5.81 0-5.994v-.004a1.585 1.585 0 0 1 1.563-1.34h7.075c.79 0 1.447.583 1.564 1.34v.004c.082.701.071 5.38 0 5.994v.006a1.585 1.585 0 0 1-1.564 1.339H18.87a.527.527 0 0 0 0 1.055h3.722a2.64 2.64 0 0 0 2.503-1.81h2.451c.126 0 .227.101.227.227V22a1.064 1.064 0 0 0-1.054 1.063V24.1c0 .586.477 1.063 1.063 1.063h7.155c.586 0 1.063-.477 1.063-1.064v-1.037c0-.584-.472-1.058-1.055-1.063ZM22.355 2.277h5.243c.426 0 .773.347.773.773a.782.782 0 0 1-.773.774h-5.243V2.277Zm-6.6 1.547h-5.243a.774.774 0 0 1-.774-.774.78.78 0 0 1 .774-.773h5.242v1.547ZM8.084 16.55a.528.528 0 0 1-1.054 0v-6.117a.528.528 0 0 1 1.055 0v6.117Zm4.795-.527H9.14V10.96h3.74v5.063Zm6.909-7.927H18.32V6.1h1.468v1.995Zm-2.453-3.05a.528.528 0 0 1-.527-.528V1.582c0-.29.237-.527.527-.527h3.437c.29 0 .527.236.527.527v2.936c0 .291-.236.528-.527.528h-3.437ZM34.946 24.1a.008.008 0 0 1-.01.009h-7.154a.008.008 0 0 1-.009-.009v-1.037c0-.005.004-.009.009-.009h7.155c.005 0 .008.004.008.009V24.1Zm-3.068 2.888a.74.74 0 0 0-1.037 0c-.996.983-3.312 3.457-3.312 5.183A3.834 3.834 0 0 0 31.36 36a3.834 3.834 0 0 0 3.83-3.829c0-1.726-2.315-4.2-3.31-5.183Zm-.519 7.957a2.778 2.778 0 0 1-2.775-2.774c0-.655.732-2.14 2.775-4.21 2.044 2.07 2.776 3.555 2.776 4.21a2.778 2.778 0 0 1-2.776 2.774Z" fill="url(#a)"/><defs><linearGradient id="a" x1="-25.425" y1="-23.53" x2="42.379" y2="-20.495" gradientUnits="userSpaceOnUse"><stop stop-color="#040E1D"/><stop offset=".203" stop-color="#0E305F"/><stop offset=".396" stop-color="#133F7B"/><stop offset=".578" stop-color="#19519D"/><stop offset=".786" stop-color="#1161CD"/><stop offset="1" stop-color="#1161CD"/></linearGradient></defs></svg>