<svg width="53" height="22" viewBox="0 0 53 22" fill="none" xmlns="http://www.w3.org/2000/svg">
<g id="&#208;&#187;&#208;&#190;&#208;&#179;&#208;&#190;&#209;&#130;&#208;&#184;&#208;&#191; &#208;&#152;&#208;&#161; &#208;&#144;&#208;&#160;&#208;&#162; &#208;&#157;&#208;&#158;&#208;&#146;&#208;&#171;&#208;&#153; 1" clip-path="url(#clip0_327_1561)">
<path id="Vector" fill-rule="evenodd" clip-rule="evenodd" d="M0.798316 18.1903C0.807963 18.1037 0.827169 18.0171 0.846462 17.9401L0.904168 17.6225C0.913814 17.5744 0.913814 17.5167 0.933063 17.4589C0.942667 17.4108 0.95227 17.3723 0.961916 17.3338C0.971563 17.2472 0.990769 17.1606 1.00042 17.0644C1.01006 16.9777 1.03891 16.8911 1.04856 16.8238C1.04856 16.766 1.13521 16.2752 1.15441 16.2367C1.15441 16.1597 1.26995 15.4379 1.28916 15.3993C1.29881 15.2646 1.34687 15.1106 1.35651 14.9759C1.36616 14.8218 1.42391 14.6197 1.44316 14.4658C1.4528 14.331 1.4913 14.1578 1.51055 14.023C1.5202 13.9461 1.52976 13.8883 1.54905 13.8017C1.5587 13.744 1.57795 13.6862 1.57795 13.6092C1.6068 13.513 1.61644 13.3301 1.6453 13.2531C1.65494 13.1087 1.69344 12.9643 1.71269 12.82C1.7223 12.7622 1.7319 12.7237 1.74155 12.6564C1.75119 12.6082 1.74155 12.5697 1.77044 12.5505C1.77044 12.4254 1.81854 12.3002 1.81854 12.1944C1.84744 12.0308 1.88594 11.8575 1.90519 11.6939C1.92444 11.5784 1.94369 11.4725 1.96294 11.357C1.97254 11.3186 1.98214 11.2319 1.99179 11.1934C2.00144 11.1357 2.01104 11.1165 2.01104 11.0587C2.02064 10.9721 2.03989 10.8855 2.05914 10.7989C2.06879 10.7315 2.09764 10.6256 2.09764 10.5679C2.11689 10.4717 2.13618 10.3658 2.14579 10.2791C2.15543 10.0866 2.23243 9.89417 2.23243 9.69207C2.25164 9.64392 2.28058 9.48032 2.28058 9.43218C2.29978 9.33593 2.31907 9.23008 2.32872 9.14343L2.41537 8.61409C2.42497 8.57559 2.42497 8.56595 2.42497 8.52745C2.42497 8.5082 2.42497 8.5082 2.43461 8.48895L2.44426 8.4697C2.44426 8.32535 2.49236 8.1521 2.51161 8.01736C2.51161 7.95965 2.55976 7.68051 2.57901 7.65161C2.57901 7.52651 2.61751 7.47841 2.61751 7.36287C2.62715 7.31473 2.66565 7.14152 2.66565 7.08377C2.66565 7.01642 2.68486 6.98757 2.69451 6.92017L2.7715 6.51593C2.7715 6.39083 2.79075 6.33304 2.81005 6.21754C2.81965 6.17904 2.84854 5.99615 2.85815 5.94809C2.86779 5.86145 2.88704 5.8037 2.89665 5.70749C2.90629 5.6401 2.98329 5.10111 3.01219 5.07226C3.01219 4.98561 3.02179 4.96641 3.04104 4.88941C3.05069 4.82201 3.08919 4.48517 3.11808 4.45627C3.11808 4.35042 3.13729 4.27342 3.15658 4.16753C3.17579 4.07128 3.17579 4.00393 3.20468 3.92693L3.31058 3.32059C3.31058 3.24355 3.39722 2.72385 3.41643 2.695C3.41643 2.60836 3.49343 2.14641 3.52228 2.08866C3.52228 2.02127 3.57042 1.72292 3.58967 1.68438C3.58967 1.59777 3.61853 1.44382 3.63782 1.35718C3.63782 1.29943 3.76292 0.587237 3.77252 0.548695C3.77252 0.413991 3.82067 0.250348 3.83992 0.115601C3.83992 0.0386028 3.84952 0.0578524 3.85913 6.10352e-05H24.7923L24.6961 0.635254C24.6769 0.731502 24.7057 0.673753 24.6576 0.712252L24.6672 0.760398C24.6383 0.904748 24.5613 1.53998 24.5132 1.60734C24.5228 1.69398 24.4362 2.27142 24.3977 2.32917C24.4073 2.42538 24.3207 2.90666 24.2918 3.02211L24.2341 3.34936L24.0512 4.35033C24.0609 4.41769 23.9742 4.94703 23.9454 4.99517C23.955 5.13952 23.8972 5.36092 23.8683 5.51491L23.7817 6.02496C23.7721 6.04421 23.7721 6.04421 23.7721 6.0635L23.7625 6.09236C23.7721 6.16935 23.7528 6.35225 23.7047 6.40995C23.7143 6.5158 23.6662 6.71795 23.647 6.8238C23.6278 6.93929 23.5508 7.49749 23.5123 7.54559C23.5219 7.63224 23.4545 8.09418 23.4064 8.15197C23.416 8.20008 23.3679 8.59467 23.3198 8.65242C23.339 8.77752 23.2235 9.24916 23.2043 9.42236C23.1754 9.52825 23.1658 9.64375 23.1465 9.7496L23.0792 10.0864C23.0888 10.1346 23.031 10.6254 22.9733 10.7024C22.9925 10.7794 22.9637 10.9623 22.9156 11.02C22.9252 11.1066 22.8963 11.2029 22.8867 11.2991L22.7809 11.8285C22.7905 11.8958 22.7616 12.1172 22.7231 12.1653C22.7327 12.2615 22.6846 12.5984 22.6365 12.6658C22.6461 12.762 22.6173 12.8679 22.598 12.9642C22.5883 13.0315 22.5691 13.2048 22.5306 13.2529C22.5402 13.3106 22.5306 13.3588 22.521 13.4165C22.521 13.4454 22.5113 13.4742 22.5018 13.5032C22.4921 13.5609 22.5018 13.532 22.4729 13.5705C22.4825 13.6379 22.4729 13.6764 22.4632 13.7341C22.4632 13.7534 22.4536 13.7919 22.4536 13.8112C22.444 13.8689 22.4536 13.84 22.4247 13.8785L22.367 14.3309C22.3285 14.4464 22.4055 14.2346 22.3574 14.3597C22.3574 14.3597 22.3477 14.379 22.3477 14.3694C22.3477 14.3694 22.3477 14.379 22.3381 14.379C22.3477 14.4367 22.3381 14.4849 22.3285 14.5426L22.29 14.687C22.3092 14.764 22.2418 15.1682 22.2033 15.226C22.213 15.3222 22.1456 15.7745 22.0975 15.8323C22.1071 15.9285 22.059 16.2846 22.0108 16.3424C22.0205 16.4194 22.0012 16.5926 21.9627 16.6504C21.9723 16.737 21.9435 16.8429 21.9242 16.9391L21.8568 17.3626C21.8472 17.43 21.8087 17.6995 21.7798 17.7572C21.799 17.8535 21.7606 17.9786 21.7413 18.0845C21.7221 18.1807 21.7221 18.3154 21.6739 18.3828C21.6835 18.4695 21.6547 18.5657 21.645 18.6523C21.6354 18.7293 21.6258 18.8448 21.5873 18.8929C21.6065 19.0084 21.5392 19.249 21.5199 19.3741C21.5007 19.4992 21.5007 19.7302 21.4333 19.8168C21.4429 19.9131 21.3948 20.2692 21.3467 20.3269C21.3563 20.4136 21.2793 20.8948 21.2408 20.9429C21.2504 21.0584 21.1831 21.376 21.1638 21.5107C21.1446 21.6551 21.1734 21.6743 21.0291 21.6839H2.93498V21.6743C2.35749 21.6743 1.78004 21.6743 1.2122 21.6839H0.182373C0.191976 21.6069 0.211226 21.5203 0.230518 21.4337L0.307517 20.9332C0.31712 20.8947 0.33637 20.7215 0.355662 20.7023C0.355662 20.6445 0.423014 20.2018 0.442306 20.1729C0.442306 20.1055 0.461513 20.0093 0.471159 19.9515C0.682904 18.7196 0.519304 19.7879 0.769549 18.1614L0.798402 18.1902L0.798316 18.1903ZM5.18705 19.865H8.44014C9.45072 14.8892 10.7981 6.95859 11.6932 1.75177L8.46908 1.75173C8.50758 2.89701 5.34113 19.0084 5.19674 19.8747L5.18709 19.865H5.18705ZM13.3293 14.6004C13.3005 14.6678 13.2908 14.7929 13.2812 14.8795C13.2716 14.9662 13.2331 15.072 13.2331 15.1683C13.2331 15.226 13.2042 15.303 13.1946 15.3608C13.1849 15.4281 13.1657 15.5148 13.1561 15.5917C13.1368 15.6206 13.0887 15.919 13.0887 15.9864C13.0598 16.0249 12.9828 16.5157 12.9828 16.6023L12.877 17.1413C12.8577 17.2857 12.8096 17.4012 12.8288 17.584C12.8577 17.8727 13.1079 18.0556 13.4159 18.0075C13.6469 17.969 13.6276 17.9497 13.7816 17.8631C13.8394 17.7669 14.0704 17.5744 14.0511 17.4204C14.0896 17.3627 14.157 16.9199 14.1666 16.8526C14.1955 16.7275 14.2725 16.3425 14.2629 16.2462L14.2725 16.2173C14.2725 16.2077 14.3495 15.9864 14.3302 15.8516L14.3591 15.7553C14.3687 15.7265 14.3687 15.688 14.3783 15.6495C14.3879 15.5821 14.4168 15.5051 14.3975 15.4377C14.4072 15.4185 14.4072 15.4377 14.4167 15.3992L14.436 15.3126C14.4456 15.2452 14.4456 15.2452 14.4456 15.1875C14.4937 15.1298 14.513 14.8699 14.5322 14.7737C14.5515 14.6486 14.6189 14.3791 14.6092 14.2732L14.6766 13.9844C14.6958 13.8786 14.7248 13.7727 14.7151 13.6765C14.744 13.638 14.744 13.5802 14.7343 13.5225C14.821 13.3877 14.6862 12.868 14.6381 12.7236C14.59 12.5889 14.3397 12.1847 14.2628 12.1462C14.2435 12.0981 14.0318 11.8093 13.9837 11.7804C13.9644 11.7227 13.9837 11.7708 13.9452 11.7227L13.6757 11.3859L13.6083 11.28C13.5217 11.1741 13.1175 10.6448 13.0789 10.6351C13.0597 10.5678 12.8961 10.3752 12.8384 10.3079C12.7902 10.2502 12.6266 10.0191 12.5881 9.99993C12.5689 9.96143 12.3379 9.63419 12.2994 9.61494C12.2512 9.49944 12.1647 9.39355 12.0973 9.2781C12.0684 9.22995 12.0299 9.1626 12.001 9.0952C11.9818 9.0471 11.9529 8.95085 11.924 8.91235C11.8855 8.69096 11.8663 8.58511 11.8759 8.34451L11.9625 7.72857L12.1069 6.92009C12.1358 6.78538 12.2128 6.43889 12.1935 6.32339C12.2417 6.256 12.2801 5.94805 12.2801 5.85176C12.3187 5.80361 12.3957 5.31277 12.386 5.24542C12.4534 5.13952 12.4822 4.68718 12.5304 4.52358C12.5496 4.38888 12.6266 4.09049 12.617 3.97503C12.6362 3.95583 12.6267 3.97503 12.6362 3.93653L12.6747 3.77293C12.694 3.70554 12.7229 3.62854 12.7133 3.56119C12.7421 3.52269 12.7325 3.54194 12.7518 3.48415C12.7614 3.45529 12.771 3.43604 12.7806 3.40715C12.7998 3.34944 12.8191 3.31094 12.8191 3.24355C12.8673 3.1954 12.925 3.0318 12.9539 2.95481L13.1079 2.66606C13.156 2.63717 13.2041 2.56017 13.2426 2.51207C13.2908 2.44467 13.3293 2.41582 13.387 2.36767C13.4351 2.32917 13.7046 2.14632 13.7142 2.12707C13.8009 2.09822 13.8971 2.03087 13.9933 1.99237C14.0896 1.95383 14.1762 1.91533 14.2821 1.88648C14.5035 1.81912 14.6959 1.79027 14.9365 1.77098C15.6199 1.75177 16.3225 1.77098 17.0154 1.77098C17.6795 1.77098 18.305 1.82868 18.6612 2.21368C18.7382 2.29067 18.9018 2.51207 18.9499 2.64681C18.9884 2.76231 19.0366 2.84891 19.0654 2.97406C19.0943 3.10876 19.1039 3.2339 19.1039 3.3975C19.1039 3.45525 19.0943 3.56115 19.0847 3.6381C19.0751 3.7151 19.0559 3.81135 19.0559 3.89799C19.0462 3.98464 19.0174 4.09049 19.0077 4.17709C18.9981 4.27334 18.9788 4.40808 18.95 4.48508C18.95 4.55243 18.9211 4.65833 18.9115 4.73533C18.8923 4.83153 18.873 4.92782 18.8633 5.01442C18.8537 5.04328 18.8152 5.26467 18.8152 5.30317C18.8056 5.37056 18.7863 5.44752 18.7671 5.53412C18.7479 5.63037 18.7286 5.71701 18.7286 5.81322C18.6997 5.89986 18.6901 6.01536 18.6708 6.12121C18.6516 6.24631 18.6323 6.3426 18.6131 6.45806C18.6131 6.52545 18.5746 6.68901 18.565 6.7468C18.5553 6.80455 18.5553 6.8238 18.5458 6.89119C18.5361 6.93929 18.5169 6.99704 18.5169 7.0644C18.5073 7.13179 18.488 7.21839 18.4687 7.29539C18.4495 7.38203 18.4302 7.47824 18.4302 7.55524C18.4206 7.61299 18.4014 7.68998 18.3821 7.76698L15.8124 7.77663C15.8124 7.59378 15.9279 7.26654 15.9182 7.09325C15.9664 7.03554 16.0145 6.66976 16.0049 6.5832C16.0241 6.5543 16.0145 6.5832 16.0241 6.53505L16.1011 6.02496C16.1588 5.95757 16.207 5.40902 16.2455 5.28387C16.2647 5.14913 16.3225 4.94703 16.3129 4.82189C16.3514 4.76418 16.3514 4.61979 16.3802 4.55243L16.3899 4.45619L16.4187 4.33109C16.4958 3.95574 16.3514 3.6285 15.9568 3.6285C15.6392 3.6285 15.3119 3.82099 15.2157 4.09049C15.1965 4.13863 15.1965 4.16749 15.1772 4.20598C15.1579 4.30223 15.129 4.43698 15.129 4.53323C15.1098 4.61987 15.1001 4.67758 15.0809 4.77383C15.0617 4.87007 15.0424 4.94707 15.0424 5.05292L15.0039 5.19727L14.975 5.37052C14.9558 5.49562 14.9269 5.61112 14.9173 5.72666C14.8884 5.74586 14.8981 5.80366 14.8884 5.85176C14.8788 5.91911 14.8692 5.9384 14.8595 5.99611C14.8499 6.08275 14.8114 6.20785 14.8114 6.2945C14.7922 6.3715 14.7825 6.43885 14.7633 6.5351C14.7441 6.6313 14.7248 6.70834 14.7248 6.81419C14.6959 6.85269 14.6574 7.13179 14.6478 7.22804C14.6381 7.29539 14.6189 7.56488 14.6381 7.63228C14.6574 7.68999 14.6189 7.65149 14.667 7.68042C14.6189 7.81513 14.7921 8.15202 14.8691 8.28676C14.9173 8.36376 14.8595 8.31562 14.9365 8.35416C14.9269 8.40226 14.9269 8.36376 14.9365 8.40226C14.9365 8.42151 14.9557 8.44076 14.9654 8.46001L15.4273 9.0856C15.4658 9.11445 15.3985 9.0856 15.4658 9.11445C15.4658 9.17216 15.6968 9.4417 15.7449 9.4802L16.0914 9.88444C16.0914 9.89408 16.0722 9.89408 16.1203 9.96143L16.5534 10.5004L16.794 10.7988C16.8614 10.8855 16.8325 10.8662 16.8902 10.8951C16.8999 10.9528 17.0346 11.1164 17.0731 11.1838C17.1501 11.2993 17.2175 11.4629 17.2752 11.4918C17.256 11.5495 17.2656 11.511 17.2944 11.5784C17.3137 11.6073 17.3137 11.6169 17.3329 11.665L17.458 12.0211C17.4966 12.1655 17.4677 12.1751 17.5158 12.2137C17.4676 12.3292 17.4966 12.5024 17.4966 12.6275C17.4869 12.7045 17.4773 12.7237 17.4773 12.82C17.4581 12.8489 17.3907 13.3205 17.3907 13.3975C17.3618 13.4264 17.3907 13.3879 17.3715 13.436C17.3715 13.4456 17.3618 13.5034 17.3618 13.5034C17.3522 13.5707 17.3426 13.6092 17.3426 13.667C17.3234 13.7055 17.256 14.1001 17.256 14.1578C17.2368 14.2348 17.2175 14.3503 17.2078 14.4466C17.1982 14.5524 17.1597 14.6487 17.1597 14.7738C17.1405 14.793 17.1405 14.8412 17.1308 14.8797C17.1212 14.9374 17.1212 14.9663 17.1116 15.0144C17.0924 15.1106 17.0827 15.2165 17.0635 15.3032C17.0635 15.3994 17.0153 15.5341 17.0153 15.6496C16.9961 15.6785 16.9672 15.871 16.9672 15.9287C16.948 16.0635 16.9095 16.1982 16.8998 16.3426C16.8806 16.3907 16.8324 16.6794 16.8324 16.7564C16.8036 16.7756 16.8036 16.8526 16.8036 16.8911C16.7939 16.9585 16.7843 16.9874 16.7747 17.0548C16.7555 17.1702 16.7265 17.2953 16.717 17.4108C16.6977 17.459 16.6785 17.5648 16.6688 17.6226C16.6496 17.69 16.6207 17.7958 16.6111 17.8728L16.4475 18.3348C16.3608 18.5466 16.255 18.6717 16.2165 18.7679C16.1973 18.7776 16.0818 18.9412 16.0529 18.9797C16.0144 19.0278 16.0048 19.0374 15.9663 19.0855L15.8604 19.2011C15.7834 19.3069 15.4754 19.5283 15.3311 19.586C15.2541 19.6149 15.1867 19.6341 15.1097 19.6823C15.0231 19.6919 14.6862 19.8074 14.3783 19.817L13.5217 19.8362C13.358 19.8362 13.2522 19.8554 13.1078 19.8554L11.9914 19.8555C11.8856 19.8555 11.8663 19.8363 11.77 19.8363C11.7219 19.8363 11.5872 19.8074 11.5295 19.7978C11.4909 19.7882 11.4621 19.7882 11.4139 19.7786C11.3658 19.7689 11.3466 19.7497 11.2888 19.7497C10.952 19.6727 10.8557 19.5572 10.6825 19.4321C10.6536 19.4129 10.6728 19.4225 10.6536 19.4129C10.6247 19.3647 10.6536 19.4032 10.6151 19.3551C10.6054 19.3359 10.5959 19.3359 10.5862 19.3166L10.259 18.7007C10.2493 18.614 10.2205 18.5371 10.2108 18.4504C10.2012 18.3542 10.2205 18.2676 10.2012 18.181C10.2301 18.1232 10.2686 17.6805 10.2782 17.5746C10.2974 17.4206 10.3744 17.103 10.3649 16.9779C10.4034 16.9202 10.4322 16.718 10.4226 16.6507L10.4322 16.6218C10.4322 16.6218 10.5189 16.3042 10.4996 16.1791C10.5381 16.1309 10.6343 15.5631 10.6247 15.4765L10.6632 15.3321C10.6728 15.2648 10.6921 15.2263 10.6728 15.1685L10.692 15.1108C10.692 15.1012 10.7017 15.0627 10.7017 15.0531C10.7113 15.0146 10.7113 14.9761 10.7209 14.9376C10.7305 14.8606 10.7594 14.774 10.7498 14.697C10.7979 14.6296 10.846 14.312 10.8364 14.2158C10.8749 14.1581 10.9519 13.619 10.9711 13.5035C11.0289 13.4554 12.1839 13.4843 12.2512 13.4843H13.5602L13.464 14.0522L13.4254 14.2736C13.4062 14.3794 13.3677 14.4853 13.3677 14.6007H13.3292L13.3293 14.6004Z" fill="#323648"/>
<path id="Vector_2" fill-rule="evenodd" clip-rule="evenodd" d="M32.4825 8.36395L32.5595 9.57667C32.5691 9.64407 32.5691 9.69217 32.5691 9.78842C32.5691 9.88467 32.5883 9.89427 32.5883 9.99052C32.5883 10.26 32.6365 10.5391 32.6365 10.8182L32.6653 11.2128C32.6845 11.3572 32.6845 11.4919 32.6845 11.6363C32.6845 11.7518 32.7134 11.9154 32.723 12.0309L32.7519 12.6277C32.7519 12.7239 32.7711 12.7432 32.7711 12.8298L32.8193 13.6575C32.8193 13.7537 32.8385 13.7633 32.8385 13.8596C32.8385 14.1002 32.8674 14.2157 32.8674 14.4755L32.9059 14.8893L31.1928 14.8893L31.5104 13.2532C31.5585 12.9741 31.6259 12.7142 31.674 12.435C31.6932 12.3003 31.7221 12.1752 31.751 12.0308C31.7799 11.8864 31.8087 11.7613 31.828 11.617L32.1456 9.98083C32.2033 9.71138 32.2418 9.43228 32.3092 9.16274L32.4247 8.55636C32.4343 8.51786 32.4343 8.50826 32.4439 8.45051L32.4728 8.34466L32.4824 8.36386L32.4825 8.36395ZM41.7605 11.2321H40.0954C40.028 11.2321 40.0569 11.1743 40.0569 11.0973L40.2494 8.04635C40.2494 7.95011 40.2686 7.9405 40.2686 7.85386L40.3264 6.83367C40.336 6.76628 40.336 6.70857 40.336 6.63153C40.336 6.45833 40.3841 6.02519 40.3841 5.82309C40.3841 5.72689 40.4033 5.7076 40.4033 5.62099L40.4226 5.20715C40.4322 5.09165 40.4514 4.91841 40.4514 4.7933H42.232C42.7228 4.7933 42.5784 5.15905 42.5784 5.54404L42.3571 8.98958C42.3571 9.06658 42.3667 9.13393 42.3571 9.21097C42.3089 9.64407 42.3089 10.2023 42.2608 10.6258C42.232 10.8856 42.3378 11.2225 41.7604 11.2225V11.2321L41.7605 11.2321ZM30.1148 20.202C30.1533 20.0192 30.1918 19.8171 30.2303 19.6342C30.2688 19.4321 30.3074 19.2492 30.3459 19.0471C30.3844 18.8546 30.4229 18.6621 30.4614 18.4601C30.4999 18.2675 30.5384 18.0654 30.5865 17.8826L33.1273 17.8825C33.1273 18.0461 33.1754 18.306 33.1754 18.4696C33.1851 18.7584 33.2332 19.0567 33.2428 19.3455C33.2525 19.538 33.291 19.7401 33.291 19.9422C33.291 20.0288 33.2813 20.202 33.3583 20.202H39.4314C39.5084 20.202 39.4795 20.0673 39.4988 19.8748C39.518 19.6342 39.518 19.3743 39.5469 19.1337C39.5565 19.076 39.5469 19.0086 39.5469 18.9509L39.6143 18.0173C39.6335 17.8441 39.6239 17.6227 39.6528 17.4494C39.6817 17.2666 39.672 17.0741 39.6913 16.8816C39.7009 16.8239 39.6913 16.7661 39.7009 16.6987L39.7971 15.2069C39.7971 15.1299 39.7971 15.0818 39.8068 15.0048C39.8357 14.793 39.8549 14.4562 39.8549 14.2445H40.2976C40.365 14.2445 40.3553 14.3311 40.3746 14.3889L40.8654 16.4485C40.9231 16.6891 40.9905 16.9682 41.0483 17.2088C41.2408 17.9595 41.4237 18.7006 41.5873 19.4609L41.722 20.0288C41.7412 20.0962 41.7317 20.1924 41.799 20.1924H45.62C45.62 20.1057 45.5526 19.9133 45.5237 19.817L45.1291 18.3445C44.9751 17.7189 44.7826 17.1029 44.6286 16.4774C44.4746 15.8614 44.2821 15.2358 44.1378 14.6198C44.1089 14.4947 44.0608 14.3696 44.0319 14.2445C44.5035 14.2445 44.8596 14.1194 45.1195 13.9077C45.5526 13.5612 45.8221 13.0318 45.8125 12.4447L46.0242 9.07618C46.0434 8.97033 46.0338 8.83559 46.053 8.73934L46.0915 8.05596C46.0915 7.97896 46.1012 7.95975 46.1108 7.90196C46.1204 7.83461 46.1108 7.78646 46.1204 7.71911C46.1493 7.55551 46.1396 7.38227 46.1493 7.21862L46.1974 6.54493C46.207 6.38129 46.207 6.18879 46.2263 6.02519L46.284 5.00501H47.4293C47.4293 5.3226 47.3811 5.6306 47.3811 5.94819L47.3137 6.89138C47.2945 7.05498 47.3041 7.20898 47.2945 7.37258L47.2271 8.31576C47.2271 8.48901 47.2175 8.65261 47.1983 8.79696L46.9673 12.589C46.9481 12.7237 46.9481 12.9258 46.9384 13.0606C46.9384 13.1473 46.9192 13.1761 46.9192 13.282L46.6112 18.2867C46.6016 18.4311 46.5727 18.6043 46.5727 18.7487L46.515 19.7016C46.4958 19.8459 46.4861 20.0192 46.4861 20.1828H50.259C50.336 20.1828 50.3071 20.0769 50.3071 19.9903C50.3071 19.8363 50.3456 19.6823 50.3456 19.5091L50.4226 18.3156C50.4419 18.1905 50.4515 17.9884 50.4515 17.844C50.4515 17.7574 50.4707 17.7189 50.4707 17.6034C50.4707 17.4879 50.49 17.4591 50.49 17.3628C50.49 17.2377 50.4996 17.0164 50.5188 16.8912C50.5477 16.7276 50.5285 16.564 50.5477 16.4003C50.5573 16.256 50.5766 16.0924 50.5766 15.9384L50.6151 15.4572C50.6151 15.3513 50.6247 15.3128 50.6343 15.2358L50.6728 14.4947C50.692 14.2156 50.7305 13.8306 50.7402 13.5515L50.7883 12.589C50.798 12.4447 50.8268 12.2811 50.8268 12.1271C50.8268 11.9634 50.8557 11.7998 50.8653 11.6459C50.875 11.309 50.9038 11.0203 50.9135 10.6834L51.2503 5.45731C51.2599 5.37066 51.2599 5.30331 51.2599 5.20706C51.2599 5.12042 51.2792 5.08196 51.2792 4.96647H53.7815C53.7141 4.68737 53.666 4.39862 53.5986 4.10028L53.3388 2.80095C53.3099 2.64696 53.281 2.51221 53.2521 2.35826C53.2232 2.22351 53.1944 2.06951 53.1655 1.93477C53.1366 1.78077 53.0884 1.63638 53.0884 1.48242H46.1588C46.1492 1.54982 46.13 1.59796 46.1107 1.65567C46.053 1.81927 45.976 2.00216 45.9375 2.16576H45.899C45.8798 2.09837 45.8123 2.05022 45.7642 2.00212C45.6584 1.89627 45.5333 1.82891 45.4081 1.76152C45.0905 1.56902 44.59 1.48242 44.1665 1.48242H36.9097C36.9097 1.74231 36.8712 1.94441 36.8712 2.18501C36.8712 2.26205 36.8615 2.2909 36.8615 2.33901C36.8519 2.4064 36.8615 2.46411 36.8519 2.5219C36.8423 2.6181 36.8327 2.77214 36.823 2.86839C36.8134 2.9261 36.823 2.98389 36.823 3.04159L36.7653 3.92707C36.7364 4.13882 36.7268 4.71631 36.7076 4.98576L36.6787 5.5055C36.6787 5.68835 36.6402 5.84234 36.6402 6.01555L36.5343 7.59397C36.5247 7.88271 36.4766 8.18106 36.4862 8.4698C36.4862 8.75854 36.4477 9.05689 36.4381 9.34564L36.3033 11.4245C36.3033 11.8383 36.2359 12.2618 36.2359 12.6757H36.2167C36.2167 12.3292 36.0916 11.6747 36.0627 11.2898L36.0339 11.0588C36.0242 10.9626 36.0242 10.9144 36.0146 10.8278L35.6874 8.0656C35.6007 7.45922 35.5623 6.82403 35.466 6.22729L35.4083 5.76534L34.9174 1.60757C34.8982 1.43432 34.8789 1.49207 34.5132 1.49207L30.8944 1.49203L30.2399 4.19648C29.7298 6.22725 29.2582 8.26762 28.7481 10.308C28.6904 10.5294 28.6326 10.7604 28.5845 10.9818L27.5162 15.3801L27.4295 15.7266L26.4382 19.7977C26.4286 19.8266 26.3516 20.1346 26.3516 20.1346C26.3612 20.1827 26.3516 20.1635 26.4093 20.1635H30.1147V20.202L30.1148 20.202Z" fill="#323648"/>
</g>
<defs>
<clipPath id="clip0_327_1561">
<rect width="52.3379" height="21.6839" fill="white" transform="translate(0.182617)"/>
</clipPath>
</defs>
</svg>
