<svg width="16" height="21" viewBox="0 0 16 21" fill="none" xmlns="http://www.w3.org/2000/svg">
<g id="Group 15">
<path id="Vector" d="M7.99989 11.9996C7.28068 11.9996 6.57763 11.7797 5.97963 11.3676C5.38164 10.9556 4.91556 10.3699 4.64033 9.6847C4.3651 8.99948 4.29309 8.24548 4.4334 7.51805C4.57371 6.79062 4.92004 6.12243 5.42859 5.59799C5.93715 5.07354 6.58508 4.71639 7.29047 4.57169C7.99585 4.427 8.727 4.50126 9.39146 4.78509C10.0559 5.06892 10.6238 5.54956 11.0234 6.16625C11.423 6.78293 11.6362 7.50796 11.6362 8.24964C11.6351 9.24385 11.2517 10.197 10.57 10.9C9.88826 11.6031 8.96397 11.9985 7.99989 11.9996ZM7.99989 5.99964C7.56836 5.99964 7.14653 6.1316 6.78773 6.37883C6.42894 6.62606 6.14929 6.97746 5.98415 7.3886C5.81902 7.79973 5.77581 8.25213 5.85999 8.68859C5.94418 9.12505 6.15198 9.52596 6.45711 9.84063C6.76224 10.1553 7.15101 10.3696 7.57424 10.4564C7.99747 10.5432 8.43616 10.4987 8.83483 10.3284C9.23351 10.1581 9.57426 9.86968 9.814 9.49967C10.0537 9.12966 10.1817 8.69464 10.1817 8.24964C10.1811 7.6531 9.95099 7.08118 9.54196 6.65937C9.13293 6.23755 8.57835 6.00029 7.99989 5.99964Z" fill="#BF3025"/>
<path id="Vector_2" d="M8 21L1.8651 13.5385C1.83026 13.4957 1.61186 13.1999 1.61186 13.1999C0.56379 11.7763 -0.00244848 10.0374 7.95866e-06 8.25C7.95866e-06 6.06196 0.842862 3.96354 2.34315 2.41637C3.84344 0.869194 5.87827 0 8 0C10.1217 0 12.1566 0.869194 13.6568 2.41637C15.1571 3.96354 16 6.06196 16 8.25C16.0026 10.0367 15.4367 11.7749 14.3892 13.198L14.3881 13.1999C14.3881 13.1999 14.17 13.4956 14.1374 13.5354L8 21ZM2.77273 12.2963C2.77346 12.2968 2.94248 12.5274 2.98117 12.577L8 18.6809L13.0254 12.5684C13.0574 12.527 13.2278 12.2948 13.2282 12.2942C14.0844 11.131 14.5471 9.71034 14.5454 8.25C14.5454 6.45979 13.8558 4.7429 12.6283 3.47703C11.4008 2.21116 9.73596 1.5 8 1.5C6.26404 1.5 4.59918 2.21116 3.37167 3.47703C2.14416 4.7429 1.45455 6.45979 1.45455 8.25C1.45294 9.71113 1.91599 11.1325 2.77273 12.2963Z" fill="#BF3025"/>
</g>
</svg>
