<svg width="16" height="16" viewBox="0 0 16 16" fill="none" xmlns="http://www.w3.org/2000/svg">
<path d="M15.4818 0.519049C14.7908 -0.173016 13.6657 -0.173016 12.9747 0.519049L8.00004 5.50141L3.0451 0.519049C2.3541 -0.173016 1.22895 -0.173016 0.537989 0.519049C-0.153009 1.21111 -0.153009 2.33801 0.537989 3.03004L5.49292 8.0124L0.518248 12.975C-0.172749 13.6671 -0.172749 14.794 0.518248 15.486C0.873512 15.8418 1.32766 16 1.78166 16C2.23566 16 2.6898 15.8221 3.04507 15.486L8 10.5234L12.9549 15.486C13.3102 15.8418 13.7643 16 14.2183 16C14.6723 16 15.1265 15.8221 15.4818 15.486C16.1728 14.7939 16.1728 13.667 15.4818 12.975L10.5071 8.0124L15.462 3.04981C16.1727 2.33804 16.1727 1.23085 15.4817 0.519084L15.4818 0.519049Z" fill="#D9D9D9"/>
</svg>
